<svg width="19" height="19" viewBox="0 0 19 19" fill="none" xmlns="http://www.w3.org/2000/svg">
<g clip-path="url(#clip0_944_18041)">
<path d="M18.3025 11.5108L17.6471 11.1324C17.7572 10.5849 17.8129 10.0368 17.8129 9.5C17.8129 8.95543 17.7581 8.40674 17.6499 7.866L18.3025 7.4892C18.5046 7.37252 18.6492 7.18408 18.7096 6.95865C18.77 6.73321 18.739 6.49774 18.6223 6.29562L16.8376 3.20434C16.7208 3.00222 16.5324 2.85762 16.307 2.79724C16.0815 2.73686 15.8461 2.76783 15.6439 2.88454L14.9908 3.26164C14.1658 2.53581 13.1948 1.97407 12.1612 1.62456V0.873777C12.1612 0.391973 11.7692 0 11.2874 0H7.71796C7.23616 0 6.84418 0.391973 6.84418 0.873777V1.62459C5.8161 1.97269 4.84647 2.53518 4.01839 3.26387L3.36142 2.88454C3.15926 2.76783 2.92379 2.73682 2.69835 2.79724C2.47292 2.85766 2.28452 3.00222 2.1678 3.20434L0.383068 6.29562C0.266354 6.49774 0.235381 6.73321 0.295765 6.95865C0.356148 7.18408 0.500749 7.37252 0.70287 7.4892L1.35824 7.8676C1.24826 8.41503 1.19252 8.9632 1.19252 9.5C1.19252 10.0445 1.24733 10.5932 1.35553 11.134L0.702907 11.5108C0.285651 11.7517 0.142203 12.2871 0.383068 12.7044L2.1678 15.7957C2.40871 16.2129 2.94413 16.3564 3.36142 16.1155L4.01452 15.7384C4.83959 16.4642 5.81052 17.0259 6.84418 17.3755V18.1262C6.84418 18.608 7.23616 19 7.71796 19H11.2874C11.7692 19 12.1612 18.608 12.1612 18.1262V17.3754C13.1893 17.0273 14.159 16.4648 14.987 15.7362L15.644 16.1155C16.0612 16.3564 16.5967 16.2129 16.8376 15.7957L18.6223 12.7044C18.8632 12.2871 18.7197 11.7517 18.3025 11.5108ZM18.1393 12.4255L16.3546 15.5168C16.2674 15.6677 16.0738 15.7196 15.9228 15.6324L15.0903 15.1517C14.9845 15.0906 14.8512 15.1056 14.7615 15.1885C13.9103 15.9758 12.8861 16.5697 11.7998 16.9063C11.6831 16.9425 11.6035 17.0504 11.6035 17.1727V18.1262C11.6035 18.3005 11.4617 18.4423 11.2874 18.4423H7.71796C7.54369 18.4423 7.40191 18.3005 7.40191 18.1262V17.1727C7.40191 17.0505 7.32231 16.9425 7.20559 16.9063C6.11259 16.5677 5.08719 15.9745 4.24014 15.1908C4.18731 15.1419 4.1193 15.1166 4.0507 15.1166C4.00288 15.1166 3.95481 15.1289 3.91134 15.154L3.08256 15.6324C2.9316 15.7195 2.73795 15.6677 2.65084 15.5168L0.866099 12.4255C0.778982 12.2746 0.830888 12.0809 0.981772 11.9938L1.80989 11.5156C1.91564 11.4546 1.96936 11.3319 1.94248 11.2128C1.81491 10.6473 1.75025 10.071 1.75025 9.5C1.75025 8.93855 1.81588 8.36283 1.94534 7.78881C1.97219 7.66972 1.91846 7.54698 1.81275 7.48596L0.981772 7.0062C0.908673 6.964 0.856395 6.89585 0.834532 6.81431C0.812706 6.73277 0.823898 6.64758 0.866099 6.57448L2.65084 3.48321C2.69304 3.41011 2.76119 3.35779 2.84277 3.33597C2.92427 3.31411 3.00949 3.32533 3.08259 3.36754L3.91517 3.84823C4.02099 3.90935 4.15425 3.89441 4.24393 3.81145C5.09518 3.0242 6.11928 2.43022 7.20559 2.09368C7.32234 2.0575 7.40195 1.94953 7.40195 1.82731V0.873777C7.40195 0.699505 7.54373 0.55773 7.718 0.55773H11.2875C11.4617 0.55773 11.6035 0.699505 11.6035 0.873777V1.82731C11.6035 1.94953 11.6831 2.0575 11.7998 2.09368C12.8928 2.43226 13.9182 3.0255 14.7653 3.80922C14.855 3.89221 14.9883 3.90712 15.0941 3.84603L15.9229 3.36754C15.996 3.32533 16.0812 3.31411 16.1627 3.33597C16.2442 3.35783 16.3124 3.41011 16.3546 3.48321L18.1394 6.57448C18.1816 6.64758 18.1928 6.73277 18.1709 6.81431C18.1491 6.89585 18.0968 6.964 18.0237 7.0062L17.1956 7.48433C17.0898 7.54538 17.0361 7.66812 17.063 7.78721C17.1906 8.3526 17.2552 8.92885 17.2552 9.5C17.2552 10.0614 17.1896 10.6372 17.0601 11.2112C17.0333 11.3302 17.087 11.4529 17.1927 11.514L18.0237 11.9938C18.1745 12.0809 18.2264 12.2746 18.1393 12.4255Z" fill="#1B193F" stroke="#1B193F" stroke-width="0.4"/>
<path d="M9.50807 3.86719C6.40196 3.86719 3.875 6.39419 3.875 9.50026C3.875 12.6063 6.40196 15.1333 9.50807 15.1333C12.6142 15.1333 15.1411 12.6063 15.1411 9.50026C15.1411 6.39419 12.6142 3.86719 9.50807 3.86719ZM9.50807 14.5756C6.70953 14.5756 4.43273 12.2988 4.43273 9.50026C4.43273 6.70172 6.70953 4.42492 9.50807 4.42492C12.3066 4.42492 14.5834 6.70172 14.5834 9.50026C14.5834 12.2988 12.3066 14.5756 9.50807 14.5756Z" fill="#1B193F" stroke="#1B193F" stroke-width="0.4"/>
<path d="M10.5387 8.03125H9.49761C9.34361 8.03125 9.21875 8.15611 9.21875 8.31011V10.6898C9.21875 10.8438 9.34361 10.9686 9.49761 10.9686C9.65162 10.9686 9.77648 10.8438 9.77648 10.6898V10.0763H10.5387C11.1025 10.0763 11.5612 9.61758 11.5612 9.05375C11.5612 8.48993 11.1025 8.03125 10.5387 8.03125ZM10.5387 9.51853H9.77648V8.58898H10.5387C10.795 8.58898 11.0035 8.79746 11.0035 9.05375C11.0035 9.31005 10.795 9.51853 10.5387 9.51853Z" fill="#1B193F" stroke="#1B193F" stroke-width="0.2"/>
<path d="M7.97985 8.21221C7.93902 8.10338 7.83499 8.03125 7.71875 8.03125H7.4213C7.30507 8.03125 7.201 8.10335 7.16021 8.21221L6.26784 10.5919C6.21374 10.7361 6.28684 10.8968 6.43103 10.9509C6.57522 11.005 6.73596 10.9319 6.79006 10.7877L6.94526 10.3737H8.19476L8.34999 10.7877C8.39197 10.8996 8.49824 10.9687 8.61112 10.9687C8.64366 10.9687 8.67675 10.963 8.70899 10.9509C8.85318 10.8968 8.92628 10.7361 8.87218 10.5919L7.97985 8.21221ZM7.15441 9.81599L7.57003 8.7077L7.98565 9.81599H7.15441Z" fill="#1B193F" stroke="#1B193F" stroke-width="0.2"/>
<path d="M12.1851 8.03125C12.0311 8.03125 11.9062 8.15611 11.9062 8.31011V10.6898C11.9062 10.8438 12.0311 10.9686 12.1851 10.9686C12.3391 10.9686 12.464 10.8438 12.464 10.6898V8.31011C12.464 8.15611 12.3391 8.03125 12.1851 8.03125Z" fill="#1B193F" stroke="#1B193F" stroke-width="0.2"/>
</g>
<defs>
<clipPath id="clip0_944_18041">
<rect width="19" height="19" fill="white"/>
</clipPath>
</defs>
</svg>
