<svg width="19" height="18" viewBox="0 0 19 18" fill="none" xmlns="http://www.w3.org/2000/svg">
<path d="M2.66914 5.36255C2.85664 5.17505 3.07864 5.0813 3.33514 5.0813C3.59164 5.0813 3.81339 5.17505 4.00039 5.36255L9.49414 10.8563L15.0066 5.3438C15.1816 5.1688 15.4004 5.0813 15.6629 5.0813C15.9254 5.0813 16.1504 5.17505 16.3379 5.36255C16.5254 5.55005 16.6191 5.77205 16.6191 6.02855C16.6191 6.28505 16.5254 6.5068 16.3379 6.6938L10.0191 12.9938C9.94414 13.0688 9.86289 13.122 9.77539 13.1535C9.68789 13.185 9.59414 13.2005 9.49414 13.2C9.39414 13.2 9.30039 13.1843 9.21289 13.1528C9.12539 13.1213 9.04414 13.0683 8.96914 12.9938L2.65039 6.67505C2.47539 6.50005 2.38789 6.2843 2.38789 6.0278C2.38789 5.7713 2.48164 5.54955 2.66914 5.36255Z" fill="#1B193F"/>
</svg>
