<svg width="14" height="19" viewBox="0 0 14 19" fill="none" xmlns="http://www.w3.org/2000/svg">
<path d="M1.23715 12.2575C1.39526 12.4192 1.58245 12.5 1.79874 12.5C2.01502 12.5 2.202 12.4192 2.35968 12.2575L6.99209 7.52079L11.6403 12.2737C11.7879 12.4246 11.9723 12.5 12.1937 12.5C12.415 12.5 12.6047 12.4192 12.7628 12.2575C12.9209 12.0958 13 11.9044 13 11.6833C13 11.4621 12.9209 11.2709 12.7628 11.1097L7.43478 5.67784C7.37154 5.61317 7.30303 5.56726 7.22925 5.5401C7.15547 5.51294 7.07642 5.49958 6.99209 5.50001C6.90777 5.50001 6.82872 5.51359 6.75494 5.54075C6.68116 5.56791 6.61265 5.6136 6.54941 5.67784L1.22134 11.1259C1.07378 11.2768 1 11.4628 1 11.6839C1 11.9051 1.07905 12.0963 1.23715 12.2575Z" fill="#1B193F"/>
</svg>
