<svg width="24" height="24" viewBox="0 0 24 24" fill="none" xmlns="http://www.w3.org/2000/svg">
<path d="M9.99687 13.6008L15.8969 7.70078C16.0802 7.51745 16.3135 7.42578 16.5969 7.42578C16.8802 7.42578 17.1135 7.51745 17.2969 7.70078C17.4802 7.88411 17.5719 8.11745 17.5719 8.40078C17.5719 8.68411 17.4802 8.91745 17.2969 9.10078L10.6969 15.7008C10.4969 15.9008 10.2635 16.0008 9.99687 16.0008C9.73021 16.0008 9.49688 15.9008 9.29688 15.7008L6.69687 13.1008C6.51354 12.9174 6.42188 12.6841 6.42188 12.4008C6.42188 12.1174 6.51354 11.8841 6.69687 11.7008C6.88021 11.5174 7.11354 11.4258 7.39687 11.4258C7.68021 11.4258 7.91354 11.5174 8.09688 11.7008L9.99687 13.6008Z" fill="#FFAE50"/>
</svg>
