<svg width="21" height="20" viewBox="0 0 21 20" fill="none" xmlns="http://www.w3.org/2000/svg">
<g clip-path="url(#clip0_944_18013)">
<path d="M14.9385 16.9074C13.6687 17.8903 12.1071 18.4211 10.5013 18.4155C8.24405 18.415 6.11461 17.3679 4.73613 15.5804C4.84192 15.5233 4.9434 15.4586 5.03977 15.3866C5.06605 15.3673 5.08917 15.3448 5.1145 15.3233C5.18526 15.2678 5.25302 15.2085 5.31746 15.1457C5.34912 15.114 5.37762 15.0801 5.40738 15.0472C5.45962 14.9896 5.50997 14.9313 5.55651 14.8693C5.58564 14.831 5.61192 14.7914 5.63883 14.7515C5.68 14.6882 5.71894 14.6248 5.75472 14.5615C5.77815 14.5188 5.80031 14.476 5.82121 14.432C5.85288 14.3633 5.88169 14.293 5.90797 14.2218C5.92443 14.1774 5.94153 14.1337 5.95546 14.0885C5.97953 14.009 5.99757 13.9276 6.01404 13.8453C6.02195 13.8054 6.03272 13.7668 6.03874 13.7262C6.25226 12.3492 5.30903 11.0597 3.93193 10.8462C3.80077 10.8258 3.66818 10.8159 3.53547 10.8164C3.29194 10.816 3.04968 10.8513 2.81641 10.9212H2.81451H2.81261C1.47153 11.3195 0.707228 12.7295 1.10547 14.0705C1.42483 15.146 2.41358 15.8833 3.53547 15.8825C3.7321 15.8801 3.92774 15.8546 4.11838 15.8065C6.69542 19.3329 11.6433 20.1025 15.1697 17.5255C15.222 17.4873 15.2738 17.4484 15.3251 17.4089C15.4642 17.3029 15.4909 17.1042 15.3849 16.9652C15.2788 16.8261 15.0801 16.7994 14.9411 16.9054C14.9402 16.9061 14.9394 16.9067 14.9385 16.9074ZM1.6357 13.3495C1.638 12.5084 2.19123 11.7684 2.9972 11.5282C3.17178 11.4758 3.35317 11.4493 3.53547 11.4497C4.58426 11.4507 5.43421 12.3007 5.43524 13.3495C5.4352 13.4501 5.42725 13.5506 5.4115 13.6499C5.30012 14.3459 4.81259 14.9231 4.14498 15.1492C3.94879 15.2161 3.74278 15.2499 3.53547 15.2492C2.48668 15.2482 1.63673 14.3982 1.6357 13.3495Z" fill="#1B193F" stroke="#1B193F" stroke-width="0.7"/>
<path d="M3.0658 9.54295C3.09153 9.54972 3.11805 9.55312 3.14464 9.55308C3.28911 9.553 3.41516 9.4552 3.45114 9.31529C4.06307 6.96908 5.79684 5.07798 8.0812 4.26507C8.08373 4.27362 8.08848 4.28154 8.09101 4.29009C8.1264 4.40245 8.16966 4.51216 8.22051 4.61843C8.22906 4.63648 8.23825 4.65421 8.24743 4.67226C8.30034 4.77761 8.36066 4.87905 8.42791 4.9759C8.43645 4.98825 8.44595 4.99965 8.45482 5.01168C8.5265 5.11229 8.60545 5.20752 8.69102 5.29665C8.77731 5.38427 8.8698 5.46553 8.96776 5.53982C8.97916 5.54868 8.98992 5.55787 9.00132 5.56641C9.09587 5.63595 9.1951 5.69888 9.29832 5.75481C9.31573 5.76431 9.33315 5.77412 9.35056 5.78299C9.4539 5.83626 9.56076 5.88249 9.67036 5.92135L9.72798 5.94035C9.84185 5.97775 9.95825 6.00696 10.0763 6.02774C10.0912 6.03059 10.1064 6.03186 10.1212 6.03407C10.4761 6.09178 10.8393 6.07013 11.1848 5.97075C12.1467 5.69975 12.8607 4.89022 13.0092 3.9019V3.89873C13.028 3.77774 13.0377 3.65548 13.038 3.53303C13.038 2.13408 11.9039 1 10.505 1C9.10604 1 7.97196 2.13408 7.97196 3.53303C7.97196 3.56627 7.97829 3.60142 7.97988 3.63466C5.4461 4.49364 3.51399 6.56898 2.83815 9.15761C2.79469 9.32689 2.89657 9.49934 3.0658 9.54295ZM10.505 1.63326C11.5538 1.63429 12.4037 2.48424 12.4048 3.53303C12.4045 3.62604 12.3971 3.71885 12.3826 3.81071C12.243 4.74081 11.4455 5.42979 10.505 5.4328C10.3895 5.43288 10.2743 5.42227 10.1608 5.40113C9.36271 5.25101 8.74719 4.61198 8.62707 3.80881C8.61274 3.71758 8.60545 3.62536 8.60522 3.53303C8.60625 2.48424 9.4562 1.63429 10.505 1.63326Z" fill="#1B193F" stroke="#1B193F" stroke-width="0.7"/>
<path d="M18.4104 11.0072C18.374 8.35721 17.009 5.90267 14.7771 4.47357C14.6329 4.37462 14.4358 4.41127 14.3369 4.55542C14.2379 4.6996 14.2746 4.8967 14.4187 4.99565C14.4238 4.99917 14.4291 5.00258 14.4345 5.00582C16.4342 6.2854 17.6818 8.4621 17.7749 10.8343C16.3867 10.661 15.1209 11.6459 14.9477 13.0341C14.7987 14.2277 15.5096 15.3614 16.649 15.7471H16.6506C16.9125 15.8364 17.1875 15.8818 17.4643 15.8814C18.8604 15.8841 19.9944 14.7545 19.9972 13.3583C19.9992 12.3237 19.3706 11.3924 18.4104 11.0072ZM17.4643 15.2481C17.2566 15.2487 17.0502 15.2148 16.8535 15.1477C15.8598 14.8112 15.3269 13.7328 15.6635 12.739C15.9249 11.9671 16.6494 11.4479 17.4643 11.4486C17.6476 11.4482 17.8299 11.4749 18.0054 11.5277C19.0109 11.8275 19.5831 12.8855 19.2834 13.891C19.0435 14.6956 18.3039 15.2474 17.4643 15.2481Z" fill="#1B193F" stroke="#1B193F" stroke-width="0.7"/>
</g>
<defs>
<clipPath id="clip0_944_18013">
<rect width="21" height="20" fill="white"/>
</clipPath>
</defs>
</svg>
