<svg width="24" height="24" viewBox="0 0 24 24" fill="none" xmlns="http://www.w3.org/2000/svg">
<path fill-rule="evenodd" clip-rule="evenodd" d="M8.25 1.5C7.00736 1.5 6 2.50735 6 3.75V4.5H5.25C4.00736 4.5 3 5.50736 3 6.75V20.25C3 21.4927 4.00736 22.5 5.25 22.5H15.75C16.9927 22.5 18 21.4927 18 20.25V19.5H18.75C19.9927 19.5 21 18.4927 21 17.25V6.75C21 6.55108 20.9209 6.36032 20.7803 6.21967L16.2803 1.71967C16.1397 1.57902 15.9489 1.5 15.75 1.5H8.25ZM7.5 3.75C7.5 3.33579 7.83577 3 8.25 3H15V5.25C15 6.49264 16.0073 7.5 17.25 7.5H19.5V17.25C19.5 17.6642 19.1642 18 18.75 18H8.25C7.83577 18 7.5 17.6642 7.5 17.25V3.75ZM18.4394 6L16.5 4.06066V5.25C16.5 5.66421 16.8358 6 17.25 6H18.4394ZM16.5 19.5H8.25C7.00736 19.5 6 18.4927 6 17.25V6H5.25C4.83578 6 4.5 6.33579 4.5 6.75V20.25C4.5 20.6642 4.83579 21 5.25 21H15.75C16.1642 21 16.5 20.6642 16.5 20.25V19.5Z" fill="#686F7B"/>
</svg>
