<svg width="24" height="24" viewBox="0 0 24 24" fill="none" xmlns="http://www.w3.org/2000/svg">
<path d="M12.5533 16.506C12.483 16.5829 12.3975 16.6442 12.3022 16.6862C12.2069 16.7282 12.1039 16.7499 11.9998 16.7499C11.8957 16.7499 11.7927 16.7282 11.6974 16.6862C11.6021 16.6442 11.5166 16.5829 11.4463 16.506L7.4463 12.131C7.3121 11.9841 7.24177 11.7898 7.25077 11.5911C7.25977 11.3923 7.34737 11.2052 7.4943 11.071C7.64123 10.9368 7.83545 10.8665 8.03424 10.8755C8.23303 10.8845 8.4201 10.9721 8.5543 11.119L11.2503 14.069V3C11.2503 2.80109 11.3293 2.61032 11.47 2.46967C11.6106 2.32902 11.8014 2.25 12.0003 2.25C12.1992 2.25 12.39 2.32902 12.5306 2.46967C12.6713 2.61032 12.7503 2.80109 12.7503 3V14.068L15.4473 11.118C15.5816 10.9712 15.7688 10.8838 15.9676 10.875C16.1664 10.8662 16.3605 10.9367 16.5073 11.071C16.6541 11.2053 16.7415 11.3925 16.7503 11.5913C16.7591 11.7901 16.6886 11.9842 16.5543 12.131L12.5533 16.506Z" fill="#1B193F"/>
<path d="M3.75 15C3.75 14.8011 3.67098 14.6103 3.53033 14.4697C3.38968 14.329 3.19891 14.25 3 14.25C2.80109 14.25 2.61032 14.329 2.46967 14.4697C2.32902 14.6103 2.25 14.8011 2.25 15V15.055C2.25 16.422 2.25 17.525 2.367 18.392C2.487 19.292 2.747 20.05 3.348 20.652C3.95 21.254 4.708 21.512 5.608 21.634C6.475 21.75 7.578 21.75 8.945 21.75H15.055C16.422 21.75 17.525 21.75 18.392 21.634C19.292 21.512 20.05 21.254 20.652 20.652C21.254 20.05 21.512 19.292 21.634 18.392C21.75 17.525 21.75 16.422 21.75 15.055V15C21.75 14.8011 21.671 14.6103 21.5303 14.4697C21.3897 14.329 21.1989 14.25 21 14.25C20.8011 14.25 20.6103 14.329 20.4697 14.4697C20.329 14.6103 20.25 14.8011 20.25 15C20.25 16.435 20.248 17.436 20.147 18.192C20.048 18.926 19.867 19.314 19.591 19.591C19.314 19.868 18.926 20.048 18.191 20.147C17.436 20.248 16.435 20.25 15 20.25H9C7.565 20.25 6.563 20.248 5.808 20.147C5.074 20.048 4.686 19.867 4.409 19.591C4.132 19.314 3.952 18.926 3.853 18.191C3.752 17.436 3.75 16.435 3.75 15Z" fill="#1B193F"/>
</svg>
