<svg width="24" height="24" viewBox="0 0 24 24" fill="none" xmlns="http://www.w3.org/2000/svg">
<g clip-path="url(#clip0_1163_42148)">
<path d="M18.375 0H5.625C2.5184 0 0 2.5184 0 5.625V18.375C0 21.4816 2.5184 24 5.625 24H18.375C21.4816 24 24 21.4816 24 18.375V5.625C24 2.5184 21.4816 0 18.375 0Z" fill="#0061FF"/>
<path d="M18.375 0H5.625C2.5184 0 0 2.5184 0 5.625V18.375C0 21.4816 2.5184 24 5.625 24H18.375C21.4816 24 24 21.4816 24 18.375V5.625C24 2.5184 21.4816 0 18.375 0Z" fill="#0061FF"/>
<g clip-path="url(#clip1_1163_42148)">
<path d="M7.49965 5L3 7.80534L7.49965 10.6108L12 7.80534L7.49965 5ZM16.5 5L12 7.80534L16.5 10.6112L21.0001 7.80562L16.5 5ZM3 13.4166L7.49965 16.222L12 13.4166L7.49965 10.6108L3 13.4166ZM16.5 10.6112L12 13.4166L16.5 16.2224L21 13.4169L16.5 10.6112ZM8 16.5L12 20L16 16.5L12 14L8 16.5Z" fill="white"/>
</g>
</g>
<defs>
<clipPath id="clip0_1163_42148">
<rect width="24" height="24" fill="white"/>
</clipPath>
<clipPath id="clip1_1163_42148">
<rect width="18" height="15" fill="white" transform="translate(3 5)"/>
</clipPath>
</defs>
</svg>
