<svg width="20" height="20" viewBox="0 0 20 20" fill="none" xmlns="http://www.w3.org/2000/svg">
<g clip-path="url(#clip0_896_17797)">
<path d="M4.49504 11.0013L11.995 1.50127L10.495 9.00127H15.495L7.99504 19.5013L9.49504 11.0013H4.49504Z" fill="url(#paint0_linear_896_17797)"/>
<path d="M11.518 2.13475L10.1782 9.17397L15.0319 9.1903L8.4252 18.733L9.765 10.9887L4.91168 10.9718L11.518 2.13475ZM11.5189 0.947266C11.4869 0.947266 11.4548 0.948435 11.4234 0.950791C11.2138 0.967732 11.0748 1.03779 10.9101 1.14853C10.8173 1.21038 10.7337 1.28493 10.6616 1.37C10.6399 1.39553 10.6195 1.42208 10.6004 1.44956L3.94654 10.2558C3.68381 10.6159 3.64522 11.0912 3.84709 11.4884C4.04867 11.8856 4.45628 12.1374 4.90307 12.1406L8.33079 12.1656L7.25314 18.5148C7.15072 19.0605 7.44165 19.6044 7.95376 19.8235C8.10259 19.8874 8.2629 19.9204 8.42488 19.9203C8.79806 19.9203 9.10473 19.7457 9.33483 19.4304L15.997 9.88764C16.2597 9.52751 16.298 9.05162 16.0964 8.65499C15.8949 8.25778 15.4873 8.00601 15.0405 8.00276L11.6127 7.99682L12.6788 2.41409C12.7014 2.32269 12.7128 2.22888 12.7127 2.13473C12.7127 1.49229 12.2012 0.968604 11.5611 0.947823C11.5469 0.947229 11.5329 0.947266 11.5189 0.947266Z" fill="url(#paint1_linear_896_17797)"/>
</g>
<defs>
<linearGradient id="paint0_linear_896_17797" x1="16.1116" y1="18.6631" x2="1.72863" y2="18.5452" gradientUnits="userSpaceOnUse">
<stop offset="0.116616" stop-color="#1D4ED8"/>
<stop offset="0.931232" stop-color="#5AD7FE"/>
</linearGradient>
<linearGradient id="paint1_linear_896_17797" x1="16.1116" y1="18.6631" x2="1.72863" y2="18.5452" gradientUnits="userSpaceOnUse">
<stop offset="0.116616" stop-color="#1D4ED8"/>
<stop offset="0.931232" stop-color="#5AD7FE"/>
</linearGradient>
<clipPath id="clip0_896_17797">
<rect width="19" height="19" fill="white" transform="translate(0.476562 0.933594)"/>
</clipPath>
</defs>
</svg>
