<svg width="39" height="47" viewBox="0 0 39 47" fill="none" xmlns="http://www.w3.org/2000/svg">
<path d="M38.575 13.7998V40.487C38.5748 42.0205 37.9642 43.4912 36.8774 44.5756C35.7906 45.6601 34.3166 46.2697 32.7795 46.2703H6.73528C5.19774 46.2703 3.72317 45.661 2.6359 44.5765C1.54863 43.4919 0.937704 42.0209 0.9375 40.487V6.46782C0.937704 4.93394 1.54863 3.46295 2.6359 2.3784C3.72317 1.29385 5.19774 0.68457 6.73528 0.68457H25.4278L38.575 13.7998Z" fill="#BA4A58"/>
<path d="M38.575 13.1175V39.8025C38.5748 41.3359 37.9642 42.8066 36.8774 43.8911C35.7906 44.9755 34.3166 45.5851 32.7795 45.5857H6.73528C5.19774 45.5857 3.72317 44.9764 2.6359 43.8919C1.54863 42.8073 0.937704 41.3363 0.9375 39.8025V5.78325C0.937704 4.24937 1.54863 2.77838 2.6359 1.69383C3.72317 0.60928 5.19774 -1.35153e-08 6.73528 0H25.4278L38.575 13.1175Z" fill="url(#paint0_linear_242_12045)"/>
<g style="mix-blend-mode:multiply" opacity="0.6">
<path d="M38.5769 13.1175V14.9557H32.0402C31.1718 14.9557 30.3119 14.785 29.5096 14.4533C28.7073 14.1216 27.9784 13.6355 27.3645 13.0227C26.7506 12.4099 26.2638 11.6825 25.9318 10.8819C25.5998 10.0813 25.4292 9.22337 25.4297 8.357V0L38.5769 13.1175Z" fill="#F2B6B8"/>
</g>
<path d="M25.4297 7.33195V0L38.5769 13.1175H31.2275C30.466 13.1175 29.7119 12.9678 29.0084 12.6771C28.3049 12.3863 27.6657 11.9601 27.1273 11.4229C26.5889 10.8856 26.1618 10.2478 25.8706 9.54587C25.5793 8.84394 25.4295 8.09165 25.4297 7.33195Z" fill="#F2B6B8"/>
<g style="mix-blend-mode:multiply" opacity="0.7">
<path d="M9.81307 31.7201C9.61446 31.7242 9.42179 31.6525 9.27432 31.5197C9.19753 31.4484 9.13744 31.361 9.09833 31.2639C9.05923 31.1667 9.04205 31.0622 9.04804 30.9577C9.04667 30.86 9.06504 30.7629 9.10207 30.6725C9.13909 30.582 9.19401 30.4998 9.26354 30.431C9.33238 30.3595 9.41531 30.303 9.5071 30.2651C9.5989 30.2272 9.69757 30.2086 9.79691 30.2106C9.89679 30.209 9.99597 30.2274 10.0885 30.2649C10.1811 30.3024 10.2652 30.3581 10.3357 30.4287C10.4792 30.5735 10.5596 30.769 10.5596 30.9727C10.5596 31.1763 10.4792 31.3718 10.3357 31.5167C10.1942 31.6491 10.007 31.7219 9.81307 31.7201Z" fill="#F2B6B8"/>
<path d="M15.0795 28.7307H13.7119V30.8123C13.7119 31.1097 13.6413 31.3354 13.5002 31.4895C13.4334 31.564 13.3512 31.6232 13.2593 31.663C13.1673 31.7028 13.0678 31.7221 12.9676 31.7198C12.8657 31.7234 12.7642 31.7046 12.6703 31.6648C12.5764 31.625 12.4924 31.5652 12.4242 31.4895C12.2872 31.3359 12.2188 31.1127 12.2188 30.8199V25.1542C12.2188 24.8266 12.2942 24.5924 12.445 24.4516C12.5959 24.3108 12.8355 24.2407 13.1639 24.2412H15.0795C15.644 24.2412 16.0801 24.2847 16.3879 24.3717C16.6773 24.4485 16.9449 24.5909 17.1699 24.7879C17.3902 24.9832 17.5615 25.2272 17.6702 25.5004C17.788 25.8023 17.8461 26.1241 17.8411 26.4479C17.8411 27.1973 17.6102 27.765 17.1484 28.151C16.6866 28.5369 15.997 28.7302 15.0795 28.7307ZM14.717 25.3599H13.7119V27.6066H14.717C15.0151 27.6136 15.3126 27.5766 15.5998 27.4968C15.8139 27.4375 16.0029 27.3106 16.1386 27.1351C16.2704 26.942 16.3357 26.7113 16.3248 26.4779C16.337 26.1864 16.2339 25.9019 16.0378 25.6855C15.8248 25.4679 15.3846 25.3594 14.717 25.3599Z" fill="#F2B6B8"/>
<path d="M20.0221 24.2415H21.9678C22.4061 24.2338 22.8436 24.2811 23.2701 24.382C23.6358 24.4774 23.9737 24.6579 24.256 24.9088C25.0256 25.5635 25.4105 26.5598 25.4105 27.8979C25.4137 28.3039 25.3748 28.7092 25.2943 29.1072C25.2248 29.4514 25.1044 29.7834 24.9371 30.0923C24.7763 30.386 24.5683 30.6513 24.3214 30.8778C24.1279 31.0516 23.9091 31.1953 23.6726 31.304C23.4317 31.4126 23.1772 31.4886 22.916 31.5297C22.6139 31.5753 22.3087 31.5972 22.0032 31.595H20.0575C19.7866 31.595 19.5819 31.5535 19.4418 31.4721C19.3765 31.4348 19.3191 31.3851 19.273 31.3256C19.2269 31.2662 19.193 31.1983 19.1732 31.1258C19.1263 30.9363 19.105 30.7413 19.1101 30.5461V25.1545C19.1101 24.8335 19.1822 24.6011 19.3264 24.4573C19.4706 24.3134 19.7025 24.2415 20.0221 24.2415ZM20.6002 25.4201V30.411H21.7315C21.9794 30.411 22.1738 30.4043 22.3149 30.391C22.4643 30.3759 22.6112 30.3421 22.7521 30.2904C22.8964 30.2413 23.0297 30.1646 23.1446 30.0647C23.6439 29.6439 23.8935 28.9183 23.8935 27.8879C23.8935 27.1621 23.7837 26.6187 23.5641 26.2578C23.3445 25.897 23.0738 25.6666 22.7521 25.5668C22.3729 25.4602 21.9799 25.4103 21.5861 25.4186L20.6002 25.4201Z" fill="#F2B6B8"/>
<path d="M31.1245 25.3902H28.1837V27.2713H30.642C30.8698 27.2713 31.0399 27.3225 31.1522 27.4249C31.2084 27.4767 31.2526 27.5401 31.2817 27.6106C31.3108 27.6811 31.3241 27.7572 31.3208 27.8334C31.3243 27.9095 31.3108 27.9854 31.2812 28.0557C31.2517 28.1259 31.2068 28.1887 31.1499 28.2396C31.036 28.3419 30.8667 28.3931 30.642 28.3931H28.1837V30.8164C28.1837 31.1235 28.1137 31.3539 27.9744 31.5005C27.9041 31.5719 27.8202 31.6286 27.7277 31.6674C27.6352 31.7061 27.5359 31.726 27.4356 31.726C27.3353 31.726 27.236 31.7061 27.1435 31.6674C27.051 31.6286 26.9671 31.5719 26.8969 31.5005C26.7583 31.3469 26.6883 31.1227 26.6883 30.8187V25.1544C26.6819 24.9748 26.7145 24.796 26.7837 24.63C26.844 24.4983 26.9505 24.3932 27.0831 24.3344C27.2479 24.2669 27.4253 24.2352 27.6034 24.2415H31.123C31.3608 24.2415 31.5378 24.2937 31.6533 24.3997C31.7108 24.4518 31.7562 24.5159 31.7862 24.5874C31.8163 24.6589 31.8303 24.7361 31.8272 24.8135C31.8305 24.8917 31.8167 24.9697 31.7866 25.0419C31.7566 25.1142 31.7111 25.1791 31.6533 25.232C31.5389 25.3374 31.3626 25.3902 31.1245 25.3902Z" fill="#F2B6B8"/>
</g>
<path d="M9.1412 31.0351C8.94262 31.039 8.75 30.9673 8.60244 30.8347C8.52565 30.7633 8.46557 30.676 8.42646 30.5788C8.38735 30.4817 8.37018 30.3772 8.37616 30.2726C8.37481 30.1748 8.39327 30.0778 8.43043 29.9873C8.46759 29.8967 8.52269 29.8147 8.59243 29.7459C8.66107 29.6744 8.74386 29.6179 8.83554 29.5799C8.92722 29.542 9.0258 29.5235 9.12504 29.5255C9.22492 29.5239 9.3241 29.5424 9.41667 29.5799C9.50923 29.6173 9.59328 29.673 9.66379 29.7436C9.73595 29.8114 9.79313 29.8935 9.8317 29.9846C9.87026 30.0757 9.88935 30.1738 9.88776 30.2726C9.89322 30.3765 9.87602 30.4804 9.83736 30.577C9.79869 30.6737 9.73948 30.7608 9.66379 30.8324C9.52209 30.9643 9.335 31.0369 9.1412 31.0351Z" fill="white"/>
<path d="M14.4022 28.0466H13.0345V30.1282C13.0345 30.4256 12.9639 30.6513 12.8228 30.8054C12.7534 30.8782 12.6698 30.9362 12.5772 30.9759C12.4846 31.0155 12.3849 31.036 12.2841 31.036C12.1833 31.036 12.0836 31.0155 11.991 30.9759C11.8983 30.9362 11.8148 30.8782 11.7453 30.8054C11.6078 30.6518 11.5391 30.4286 11.5391 30.1358V24.4701C11.5391 24.142 11.6145 23.9078 11.7653 23.7675C11.9162 23.6273 12.1558 23.5571 12.4842 23.5571H14.3999C14.9643 23.5571 15.4004 23.6006 15.7083 23.6877C15.9975 23.7647 16.265 23.9071 16.4902 24.1038C16.7105 24.2991 16.8818 24.5431 16.9905 24.8164C17.1084 25.1182 17.1664 25.44 17.1614 25.7639C17.1614 26.5133 16.9305 27.0809 16.4687 27.4669C16.0069 27.8528 15.318 28.0461 14.4022 28.0466ZM14.0397 24.6759H13.0345V26.9225H14.0397C14.3377 26.9295 14.6352 26.8925 14.9224 26.8127C15.1365 26.7534 15.3255 26.6265 15.4612 26.4511C15.5931 26.2582 15.6585 26.0278 15.6475 25.7946C15.6597 25.5029 15.5566 25.218 15.3604 25.0014C15.1474 24.7844 14.7072 24.6759 14.0397 24.6759Z" fill="white"/>
<path d="M19.3261 23.5599H21.2717C21.71 23.5522 22.1475 23.5994 22.574 23.7004C22.9396 23.7961 23.2774 23.9765 23.5599 24.2271C24.3296 24.8818 24.7144 25.8782 24.7144 27.2163C24.718 27.6223 24.6791 28.0276 24.5982 28.4256C24.5286 28.7697 24.4085 29.1016 24.2418 29.4107C24.0808 29.7042 23.8729 29.9696 23.6261 30.1962C23.433 30.3705 23.2141 30.5142 22.9773 30.6223C22.7364 30.731 22.4819 30.8069 22.2207 30.8481C21.9189 30.8941 21.614 30.9159 21.3087 30.9133H19.3622C19.0913 30.9133 18.8861 30.8724 18.7465 30.7905C18.6811 30.7532 18.6238 30.7034 18.5777 30.644C18.5316 30.5846 18.4977 30.5167 18.4779 30.4442C18.431 30.2547 18.4097 30.0597 18.4148 29.8645V24.4698C18.4148 24.1488 18.4869 23.9164 18.6311 23.7726C18.7753 23.6287 19.0069 23.5578 19.3261 23.5599ZM19.9041 24.7385V29.7294H21.0355C21.2841 29.7294 21.478 29.7224 21.6189 29.7094C21.7682 29.6942 21.9151 29.6605 22.056 29.6088C22.2003 29.5596 22.3336 29.483 22.4485 29.3831C22.9483 28.9623 23.1979 28.2367 23.1974 27.2063C23.1974 26.4804 23.0876 25.9371 22.868 25.5762C22.6484 25.2153 22.3777 24.985 22.056 24.8852C21.6768 24.7786 21.2839 24.7286 20.89 24.737L19.9041 24.7385Z" fill="white"/>
<path d="M30.4371 24.7051H27.4962V26.5863H29.9545C30.1823 26.5863 30.3524 26.6375 30.4648 26.7398C30.5209 26.7916 30.5651 26.855 30.5942 26.9255C30.6233 26.9961 30.6367 27.0721 30.6333 27.1483C30.6368 27.2244 30.6233 27.3004 30.5938 27.3706C30.5642 27.4409 30.5194 27.5037 30.4625 27.5545C30.3486 27.6569 30.1792 27.7081 29.9545 27.7081H27.4962V30.1313C27.4962 30.4385 27.4262 30.6688 27.2877 30.8155C27.2174 30.8869 27.1335 30.9436 27.041 30.9823C26.9485 31.021 26.8492 31.041 26.7489 31.041C26.6486 31.041 26.5493 31.021 26.4568 30.9823C26.3643 30.9436 26.2804 30.8869 26.2101 30.8155C26.0706 30.665 26.0008 30.4377 26.0008 30.1336V24.4694C25.9943 24.2897 26.0271 24.1107 26.097 23.945C26.1567 23.8131 26.263 23.7079 26.3956 23.6493C26.5605 23.5818 26.7378 23.5502 26.9159 23.5564H30.4355C30.6736 23.5564 30.8504 23.6092 30.9658 23.7146C31.0233 23.7668 31.0686 23.8309 31.0987 23.9024C31.1287 23.9738 31.1427 24.051 31.1398 24.1285C31.143 24.2066 31.1292 24.2846 31.0991 24.3569C31.0691 24.4292 31.0236 24.494 30.9658 24.5469C30.8514 24.6524 30.6751 24.7051 30.4371 24.7051Z" fill="white"/>
<defs>
<linearGradient id="paint0_linear_242_12045" x1="19.7562" y1="0" x2="19.7562" y2="42.8868" gradientUnits="userSpaceOnUse">
<stop stop-color="#E27669"/>
<stop offset="1" stop-color="#DB574D"/>
</linearGradient>
</defs>
</svg>
