<svg width="19" height="19" viewBox="0 0 19 19" fill="none" xmlns="http://www.w3.org/2000/svg">
<g clip-path="url(#clip0_944_18037)">
<path d="M17.8284 3.53772H11.2942C11.2852 3.53772 11.2773 3.53293 11.2735 3.52525L10.5996 2.15829C10.4094 1.77139 10.0079 1.52148 9.57647 1.52148H5.62635C4.99752 1.52148 4.48596 2.03319 4.48596 2.66216V3.78023H3.36745C2.73877 3.78023 2.22721 4.29179 2.22721 4.92062V6.03869H1.10914C0.48031 6.03869 -0.03125 6.55025 -0.03125 7.17908V16.4072C-0.03125 17.036 0.48031 17.5475 1.10914 17.5475H13.3113C13.9402 17.5475 14.4517 17.036 14.4517 16.4072V15.2889H15.5699C16.1988 15.2889 16.7103 14.7774 16.7103 14.1487V13.0306H17.8284C18.4572 13.0306 18.9688 12.5191 18.9688 11.8902V4.6784C18.9688 4.04942 18.4572 3.53772 17.8284 3.53772ZM13.3113 16.4299H1.10914C1.09667 16.4299 1.08638 16.4198 1.08638 16.4072V7.17908C1.08638 7.16647 1.09667 7.15632 1.10914 7.15632H5.05956C5.06333 7.15632 5.06695 7.15763 5.07014 7.15937C5.07057 7.15966 5.07115 7.15951 5.07159 7.1598C5.07289 7.16067 5.07362 7.16227 5.07478 7.16328C5.07666 7.16516 5.07884 7.16676 5.08 7.16908L5.7542 8.53647C5.94772 8.92873 6.33969 9.17255 6.77703 9.17255H13.3113C13.3144 9.17255 13.3174 9.17313 13.3202 9.17429C13.3283 9.17777 13.334 9.18589 13.334 9.19531C13.334 13.1365 13.3341 16.3712 13.3341 16.4072C13.3341 16.4198 13.3239 16.4299 13.3113 16.4299ZM15.5927 14.1487C15.5927 14.1612 15.5826 14.1713 15.5701 14.1713H14.4517V9.19531C14.4517 8.56634 13.94 8.05478 13.3112 8.05478H6.77703C6.76862 8.05478 6.7605 8.0497 6.75674 8.04202L6.08239 6.67462C5.88901 6.2828 5.49719 6.03869 5.0597 6.03869H3.34484V4.92062C3.34484 4.90801 3.35499 4.89786 3.36745 4.89786H7.31802C7.32671 4.89786 7.33454 4.90265 7.33845 4.91077L8.0128 6.27816C8.20647 6.67042 8.59829 6.9141 9.03549 6.9141H15.5701C15.5826 6.9141 15.5927 6.92424 15.5927 6.93685V14.1487ZM17.8512 11.8902C17.8512 11.9029 17.841 11.913 17.8284 11.913H16.7103V6.93685C16.7103 6.30802 16.1989 5.79646 15.5701 5.79646H9.03549C9.02693 5.79646 9.01896 5.79139 9.01505 5.78356L8.34085 4.4166C8.14761 4.02405 7.75565 3.78023 7.31802 3.78023H5.60359V2.66216C5.60359 2.64941 5.61374 2.63912 5.6262 2.63912H9.57633C9.58488 2.63912 9.59285 2.6439 9.59677 2.65187L10.2711 4.0197C10.4646 4.41167 10.8566 4.65535 11.2942 4.65535H17.8284C17.8409 4.65535 17.851 4.66564 17.851 4.67854V11.8902H17.8512Z" fill="#1B193F"/>
<path d="M9.89475 14C9.58614 14 9.33594 14.2502 9.33594 14.5588V14.8819C9.33594 15.1905 9.58614 15.4407 9.89475 15.4407C10.2034 15.4407 10.4536 15.1905 10.4536 14.8819V14.5588C10.4536 14.2502 10.2034 14 9.89475 14Z" fill="#1B193F"/>
<path d="M11.5276 14C11.2189 14 10.9688 14.2502 10.9688 14.5588V14.8819C10.9688 15.1905 11.2189 15.4407 11.5276 15.4407C11.8362 15.4407 12.0864 15.1905 12.0864 14.8819V14.5588C12.0864 14.2502 11.8362 14 11.5276 14Z" fill="#1B193F"/>
</g>
<defs>
<clipPath id="clip0_944_18037">
<rect width="19" height="19" fill="white"/>
</clipPath>
</defs>
</svg>
