<svg width="24" height="26" viewBox="0 0 24 26" fill="none" xmlns="http://www.w3.org/2000/svg">
<path d="M23.8096 13.2671C23.8096 12.2764 23.7293 11.5534 23.5553 10.8037H12.2422V15.2753H18.8827C18.7489 16.3866 18.0259 18.0601 16.4193 19.1847L16.3968 19.3344L19.9738 22.1054L20.2216 22.1302C22.4975 20.0282 23.8096 16.9355 23.8096 13.2671Z" fill="#4285F4"/>
<path d="M12.2408 25.0491C15.4941 25.0491 18.2252 23.978 20.2201 22.1305L16.4179 19.185C15.4004 19.8946 14.0347 20.39 12.2408 20.39C9.05437 20.39 6.34996 18.2881 5.38591 15.3828L5.24461 15.3948L1.5252 18.2733L1.47656 18.4085C3.458 22.3446 7.52805 25.0491 12.2408 25.0491Z" fill="#34A853"/>
<path d="M5.386 15.3829C5.13163 14.6331 4.98441 13.8298 4.98441 12.9997C4.98441 12.1696 5.13163 11.3664 5.37262 10.6166L5.36588 10.4569L1.59987 7.53223L1.47665 7.59084C0.660001 9.22422 0.191406 11.0585 0.191406 12.9997C0.191406 14.941 0.660001 16.7752 1.47665 18.4086L5.386 15.3829Z" fill="#FBBC05"/>
<path d="M12.2408 5.60928C14.5033 5.60928 16.0296 6.58662 16.8998 7.40336L20.3004 4.08305C18.2119 2.14176 15.4941 0.950195 12.2408 0.950195C7.52805 0.950195 3.458 3.6546 1.47656 7.59072L5.37253 10.6165C6.34996 7.71126 9.05437 5.60928 12.2408 5.60928Z" fill="#EB4335"/>
</svg>
