<svg width="19" height="19" viewBox="0 0 19 19" fill="none" xmlns="http://www.w3.org/2000/svg">
<g clip-path="url(#clip0_944_18033)">
<path d="M10.3744 0.792969C8.45997 0.802286 6.60268 1.44643 5.09356 2.62447C3.58444 3.80251 2.50874 5.4479 2.03501 7.30284L1.45551 6.42647C1.40065 6.33472 1.32777 6.25503 1.24128 6.19221C1.15478 6.12938 1.05646 6.08473 0.952239 6.06094C0.848019 6.03714 0.740059 6.03471 0.634871 6.05377C0.529682 6.07283 0.429444 6.113 0.340201 6.17185C0.250958 6.23071 0.174559 6.30702 0.115611 6.3962C0.0566635 6.48539 0.0163881 6.58558 -0.00278632 6.69075C-0.0219607 6.79592 -0.0196367 6.90388 0.00404546 7.00813C0.0277276 7.11237 0.0722774 7.21074 0.135008 7.2973L1.87668 9.93672C1.99766 10.106 2.17603 10.2256 2.37859 10.2732C2.58543 10.3142 2.80011 10.273 2.97709 10.1584L5.58959 8.39851C5.67967 8.34226 5.75751 8.26846 5.81847 8.18151C5.87944 8.09456 5.92229 7.99623 5.94447 7.89237C5.96665 7.78852 5.96771 7.68126 5.94758 7.57699C5.92746 7.47272 5.88656 7.37356 5.82732 7.28542C5.76808 7.19728 5.69171 7.12196 5.60277 7.06394C5.51382 7.00592 5.41411 6.96639 5.30957 6.94771C5.20503 6.92902 5.0978 6.93156 4.99426 6.95517C4.89072 6.97878 4.79299 7.02298 4.70688 7.08514L3.51859 7.8863C3.83485 6.60253 4.50559 5.4335 5.45428 4.51259C6.40298 3.59168 7.59143 2.95598 8.88404 2.67802C10.1766 2.40005 11.5214 2.49102 12.7647 2.94054C14.0081 3.39006 15.1001 4.18003 15.9162 5.22032C16.7322 6.26061 17.2394 7.50932 17.3798 8.824C17.5203 10.1387 17.2884 11.4664 16.7106 12.6556C16.1328 13.8448 15.2324 14.8477 14.1121 15.5497C12.9917 16.2518 11.6966 16.6249 10.3744 16.6263C9.24103 16.6232 8.12513 16.3466 7.12158 15.8198C6.11804 15.293 5.25653 14.5317 4.6103 13.6006C4.55242 13.5117 4.47728 13.4353 4.38933 13.3761C4.30138 13.3168 4.20241 13.2758 4.09832 13.2555C3.99422 13.2352 3.8871 13.2361 3.78333 13.258C3.67956 13.2799 3.58126 13.3224 3.49425 13.3831C3.40724 13.4437 3.3333 13.5212 3.27682 13.611C3.22034 13.7008 3.18248 13.801 3.16548 13.9057C3.14848 14.0104 3.15268 14.1174 3.17785 14.2204C3.20301 14.3234 3.24862 14.4204 3.31197 14.5054C4.36256 16.02 5.87129 17.1577 7.61643 17.7512C9.36156 18.3447 11.251 18.3627 13.0072 17.8027C14.7634 17.2426 16.2936 16.134 17.3729 14.6398C18.4522 13.1455 19.0238 11.3445 19.0036 9.5013C19.0114 7.20302 18.1073 4.99549 16.4896 3.36294C14.8719 1.7304 12.6727 0.806163 10.3744 0.792969Z" fill="#1B193F"/>
<path d="M10.2917 4.71094C10.0817 4.71094 9.88034 4.79435 9.73187 4.94281C9.58341 5.09128 9.5 5.29264 9.5 5.5026V9.50052C9.50337 9.70979 9.58631 9.90992 9.73196 10.0602L12.107 12.4566C12.256 12.6033 12.4564 12.686 12.6655 12.687C12.8747 12.688 13.0759 12.6074 13.2264 12.4621C13.3754 12.3143 13.4597 12.1133 13.4605 11.9034C13.4614 11.6935 13.3789 11.4918 13.2311 11.3427L11.0833 9.17515V5.5026C11.0833 5.29264 10.9999 5.09128 10.8515 4.94281C10.703 4.79435 10.5016 4.71094 10.2917 4.71094Z" fill="#1B193F"/>
</g>
<defs>
<clipPath id="clip0_944_18033">
<rect width="19" height="19" fill="white"/>
</clipPath>
</defs>
</svg>
