<svg width="25" height="25" viewBox="0 0 25 25" fill="none" xmlns="http://www.w3.org/2000/svg">
<path d="M2.61572 12.3135C2.61572 17.8365 7.09272 22.3135 12.6157 22.3135C18.1387 22.3135 22.6157 17.8365 22.6157 12.3135C22.6157 6.79048 18.1387 2.31348 12.6157 2.31348C7.09272 2.31348 2.61572 6.79048 2.61572 12.3135Z" stroke="#1B193F" stroke-width="1.5" stroke-linecap="round" stroke-linejoin="round"/>
<path d="M13.6156 2.36353C13.6156 2.36353 16.6156 6.31353 16.6156 12.3135C16.6156 18.3135 13.6156 22.2635 13.6156 22.2635M11.6156 22.2635C11.6156 22.2635 8.61561 18.3135 8.61561 12.3135C8.61561 6.31353 11.6156 2.36353 11.6156 2.36353M3.24561 15.8135H21.9856M3.24561 8.81353H21.9856" stroke="#1B193F" stroke-width="1.5" stroke-linecap="round" stroke-linejoin="round"/>
</svg>
