<svg width="20" height="20" viewBox="0 0 20 20" fill="none" xmlns="http://www.w3.org/2000/svg">
<path d="M3.33594 7.22287H6.11372V16.6673H3.33594V7.22287ZM4.71649 6.11176H4.70094C3.87205 6.11176 3.33594 5.49398 3.33594 4.72232C3.33594 3.93398 3.88872 3.33398 4.7326 3.33398C5.5776 3.33398 6.09816 3.93398 6.11372 4.72232C6.11372 5.49343 5.5776 6.11176 4.71649 6.11176ZM16.6693 16.6673H13.8915V11.6123C13.8915 10.3912 13.2109 9.55787 12.1182 9.55787C11.2843 9.55787 10.8332 10.1201 10.6143 10.6634C10.5343 10.8579 10.5582 11.3957 10.5582 11.6673V16.6673H7.78038V7.22287H10.5582V8.67621C10.9587 8.05621 11.5859 7.22287 13.1904 7.22287C15.1782 7.22287 16.6687 8.47287 16.6687 11.264L16.6693 16.6673Z" fill="white"/>
</svg>
