<svg width="21" height="21" viewBox="0 0 21 21" fill="none" xmlns="http://www.w3.org/2000/svg">
<path d="M10.5 11.375C10.2521 11.375 10.0444 11.291 9.877 11.123C9.709 10.9556 9.625 10.7479 9.625 10.5V3.5C9.625 3.25208 9.709 3.04412 9.877 2.87612C10.0444 2.70871 10.2521 2.625 10.5 2.625C10.7479 2.625 10.9559 2.70871 11.1239 2.87612C11.2913 3.04412 11.375 3.25208 11.375 3.5V10.5C11.375 10.7479 11.2913 10.9556 11.1239 11.123C10.9559 11.291 10.7479 11.375 10.5 11.375ZM10.5 18.375C9.40625 18.375 8.38192 18.1673 7.427 17.752C6.4715 17.3361 5.64025 16.7743 4.93325 16.0667C4.22567 15.3597 3.66392 14.5285 3.248 13.573C2.83267 12.6181 2.625 11.5938 2.625 10.5C2.625 9.49375 2.80729 8.53125 3.17188 7.6125C3.53646 6.69375 4.06146 5.8625 4.74688 5.11875C4.90729 4.94375 5.11146 4.85625 5.35938 4.85625C5.60729 4.85625 5.81875 4.94375 5.99375 5.11875C6.15417 5.27917 6.22708 5.47954 6.2125 5.71988C6.19792 5.96079 6.11042 6.17604 5.95 6.36563C5.43958 6.93438 5.04962 7.57225 4.78012 8.27925C4.51004 8.98683 4.375 9.72708 4.375 10.5C4.375 12.2063 4.96942 13.6535 6.15825 14.8418C7.3465 16.0306 8.79375 16.625 10.5 16.625C12.2063 16.625 13.6535 16.0306 14.8418 14.8418C16.0306 13.6535 16.625 12.2063 16.625 10.5C16.625 9.72708 16.4865 8.97983 16.2094 8.25825C15.9323 7.53608 15.5385 6.89062 15.0281 6.32187C14.8677 6.14687 14.784 5.94271 14.777 5.70938C14.7694 5.47604 14.8458 5.27917 15.0062 5.11875C15.1812 4.94375 15.3927 4.85625 15.6406 4.85625C15.8885 4.85625 16.0927 4.94375 16.2531 5.11875C16.9385 5.8625 17.4635 6.69375 17.8281 7.6125C18.1927 8.53125 18.375 9.49375 18.375 10.5C18.375 11.5938 18.1673 12.6181 17.752 13.573C17.3361 14.5285 16.7746 15.3597 16.0676 16.0667C15.36 16.7743 14.5288 17.3361 13.5739 17.752C12.6184 18.1673 11.5938 18.375 10.5 18.375Z" fill="#F91C1C"/>
</svg>
