<svg width="127" height="34" viewBox="0 0 127 34" fill="none" xmlns="http://www.w3.org/2000/svg">
<path fill-rule="evenodd" clip-rule="evenodd" d="M0.00132764 10.05C0.00132764 15.5958 0.00127292 20.2814 0.00132764 20.4295C0.15288 20.2814 0.607538 19.9854 1.81996 19.0971L3.63859 17.7648L3.65163 12.7354L3.63859 7.99437L4.78827 9.05846C6.01767 10.3846 17.2999 20.4295 17.5814 20.4295C17.5814 20.2814 17.5814 15.6035 17.5814 10.0669C17.5814 4.5303 17.5789 0.148037 17.5789 0C17.4828 0 16.3665 0.740185 15.5885 1.25484L13.9442 2.38334V12.4968L12.8075 11.5473C12.1825 11.025 9.29818 8.37986 6.39806 5.6693C3.49795 2.95845 0.309775 0.212877 0.000607165 0C-0.00109713 0.888222 0.00132764 0.289635 0.00132764 10.05ZM23.0373 3.25719H36.9802V0.000370957H23.0373V3.25719ZM42.741 7.18017C42.7428 14.8405 42.9132 16.092 44.1762 17.7266C46.4053 20.6104 53.0381 21.0885 55.967 18.5766C58.13 16.7214 58.314 15.8942 58.4373 7.47624L58.5467 0.000370957H54.8634V7.12095C54.8634 15.1662 54.9433 15.5675 52.6915 16.9018C50.8516 17.9921 47.9741 17.1821 46.7966 15.2819C46.2864 14.4594 46.2143 13.586 46.1255 7.18017L46.0261 0.000370957H42.7392L42.741 7.18017ZM63.9566 3.21988L69.3816 3.31255C74.0979 3.39308 74.885 3.4748 75.4088 3.93845C76.6779 5.06205 76.4309 7.60859 74.9905 8.24959C74.5195 8.45921 72.2865 8.58652 69.08 8.58652H63.9504V12.1566H71.7561L75.6596 20.4601H77.9113C79.2624 20.4601 79.7128 20.4601 80.1631 20.4601C80.1631 20.4601 79.0503 18.0849 77.8633 15.965C76.6767 13.8454 75.7562 12.0778 75.8174 12.037C75.8789 11.9964 76.2902 11.8122 76.7316 11.6275C78.4377 10.9134 79.718 8.40058 79.718 5.76582C79.718 3.06651 78.6232 1.43959 76.1196 0.41754C75.3661 0.109919 73.6332 0.000370957 69.527 0.000370957H63.9566V3.21988ZM91.3227 0.429975C85.3476 2.25379 82.3772 8.12494 84.5777 13.7604C85.5001 16.1225 87.6512 18.3294 90.0609 19.3858C90.9716 19.7851 93.0227 20.1334 94.5745 20.0153C99.5137 19.6396 101.919 17.7861 103.626 14.2119C104.766 11.825 104.732 8.55958 103.539 6.00416C101.377 1.37356 96.1079 -1.03085 91.3227 0.429975ZM108.986 10.2301C108.986 15.7667 108.986 20.4601 108.986 20.4601C109.076 20.4601 110.19 19.5869 111.095 18.9189L112.742 17.7044V8.00614L119.88 14.1634L127 20.4601L126.931 10.2294C126.975 4.71653 127 0.148037 127 0C126.545 0.296074 127 0 125.03 1.33233L123.365 2.36859V7.42502V12.454L116.312 6.20401C112.516 2.79205 109.066 0 108.986 0C108.986 0 108.986 4.69348 108.986 10.2301ZM92.4194 3.66458C90.7335 4.10781 89.5408 4.97886 88.4396 6.57144C86.3724 9.5606 87.2111 13.623 90.287 15.5197C92.6864 16.9995 94.967 17.1534 97.2839 15.9925C98.6918 15.2873 99.5457 14.365 100.304 12.7316C101.825 9.45313 100.51 5.79336 97.2539 4.24607C95.4632 3.39545 94.0777 3.22876 92.4194 3.66458ZM23.0373 8.29007C23.0348 8.43811 23.0373 9.39569 23.0373 10.2644V11.8433H35.4647V8.29044H29.4532C26.1466 8.29044 23.1864 8.29007 23.0373 8.29007ZM23.0348 20.4291H30.0689L36.9802 20.4407V16.8766H23.0348V20.4291Z" fill="white"/>
<path d="M68.5844 31.118C68.352 31.2964 68.0739 31.4382 67.7502 31.5436C67.4265 31.649 67.1029 31.7017 66.7792 31.7017C66.2148 31.7017 65.721 31.5923 65.2977 31.3734C64.8744 31.1545 64.5424 30.8505 64.3017 30.4613C64.0693 30.0641 63.9531 29.5979 63.9531 29.0628C63.9531 28.5278 64.0776 28.0616 64.3266 27.6644C64.5839 27.2671 64.9159 26.9631 65.3226 26.7523C65.7376 26.5334 66.1816 26.424 66.6547 26.424C67.0697 26.424 67.439 26.4807 67.7627 26.5942C68.0947 26.7077 68.3769 26.8618 68.6093 27.0563L68.0366 27.786C67.8872 27.6725 67.7046 27.5711 67.4888 27.482C67.273 27.3928 67.0282 27.3482 66.7543 27.3482C66.4555 27.3482 66.1774 27.4252 65.9202 27.5792C65.6712 27.7252 65.472 27.9278 65.3226 28.1873C65.1815 28.4467 65.1109 28.7386 65.1109 29.0628C65.1109 29.3709 65.1856 29.6587 65.335 29.9263C65.4844 30.1857 65.6919 30.3924 65.9575 30.5465C66.2231 30.6924 66.526 30.7654 66.8663 30.7654C67.0904 30.7654 67.2937 30.7329 67.4763 30.6681C67.6672 30.6032 67.8374 30.514 67.9868 30.4005L68.5844 31.118Z" fill="white"/>
<path d="M69.6308 29.0142C69.6308 28.5116 69.7511 28.0576 69.9918 27.6522C70.2408 27.2468 70.5811 26.9266 71.0127 26.6915C71.4443 26.4564 71.934 26.3388 72.4817 26.3388C73.0461 26.3388 73.54 26.4564 73.9632 26.6915C74.3865 26.9266 74.7144 27.2468 74.9467 27.6522C75.1791 28.0576 75.2953 28.5116 75.2953 29.0142C75.2953 29.5169 75.1791 29.9749 74.9467 30.3884C74.7144 30.7937 74.3824 31.114 73.9508 31.3491C73.5275 31.5842 73.0337 31.7017 72.4693 31.7017C71.9215 31.7017 71.4318 31.5923 71.0002 31.3734C70.577 31.1464 70.2408 30.8343 69.9918 30.437C69.7511 30.0317 69.6308 29.5574 69.6308 29.0142ZM70.7886 29.0264C70.7886 29.3507 70.8633 29.6466 71.0127 29.9141C71.1621 30.1735 71.3613 30.3803 71.6103 30.5343C71.8676 30.6883 72.1497 30.7654 72.4568 30.7654C72.7805 30.7654 73.0669 30.6883 73.3159 30.5343C73.5731 30.3803 73.7723 30.1735 73.9134 29.9141C74.0545 29.6466 74.1251 29.3507 74.1251 29.0264C74.1251 28.7021 74.0545 28.4102 73.9134 28.1508C73.7723 27.8833 73.5731 27.6725 73.3159 27.5184C73.0669 27.3563 72.7805 27.2752 72.4568 27.2752C72.1414 27.2752 71.8551 27.3563 71.5978 27.5184C71.3488 27.6806 71.1496 27.8954 71.0002 28.163C70.8591 28.4224 70.7886 28.7102 70.7886 29.0264Z" fill="white"/>
<path d="M77.8963 26.5456L78.0084 28.0049L77.9461 27.8103C78.0789 27.5022 78.2698 27.2428 78.5188 27.032C78.7761 26.8131 79.0417 26.6469 79.3155 26.5334C79.5977 26.4118 79.8426 26.351 80.0501 26.351L79.9878 27.4698C79.5977 27.4455 79.2533 27.5184 78.9545 27.6887C78.664 27.8589 78.4316 28.0859 78.2573 28.3697C78.0913 28.6534 78.0084 28.9575 78.0084 29.2817V31.5801H76.863V26.5456H77.8963Z" fill="white"/>
<path d="M84.5814 31.7017C84.1913 31.7017 83.8137 31.6126 83.4485 31.4342C83.0916 31.2558 82.8136 31.0167 82.6144 30.7167L82.6891 30.364V34.0001H81.5437V26.4726H82.5397L82.7015 27.7617L82.577 27.409C82.826 27.1009 83.1414 26.8455 83.5232 26.6429C83.905 26.4402 84.3324 26.3388 84.8055 26.3388C85.2869 26.3388 85.7185 26.4523 86.1003 26.6793C86.4903 26.9063 86.7974 27.2225 87.0215 27.6279C87.2456 28.0332 87.3577 28.5075 87.3577 29.0507C87.3577 29.5939 87.2373 30.0641 86.9966 30.4613C86.7559 30.8586 86.4239 31.1667 86.0007 31.3855C85.5857 31.5963 85.1126 31.7017 84.5814 31.7017ZM84.3573 30.8018C84.6893 30.8018 84.9922 30.7289 85.2661 30.5829C85.5483 30.4289 85.7724 30.2222 85.9384 29.9627C86.1044 29.6952 86.1874 29.3952 86.1874 29.0628C86.1874 28.7223 86.1086 28.4224 85.9509 28.163C85.7932 27.8954 85.5815 27.6846 85.3159 27.5306C85.0586 27.3766 84.7681 27.2995 84.4445 27.2995C84.1457 27.2995 83.8759 27.3563 83.6352 27.4698C83.3946 27.5833 83.1954 27.7414 83.0377 27.9441C82.88 28.1386 82.7679 28.3656 82.7015 28.6251V29.4642C82.743 29.7236 82.8426 29.9546 83.0003 30.1573C83.158 30.36 83.3531 30.5181 83.5854 30.6316C83.8261 30.7451 84.0834 30.8018 84.3573 30.8018Z" fill="white"/>
<path d="M88.4753 29.0142C88.4753 28.5116 88.5956 28.0576 88.8363 27.6522C89.0853 27.2468 89.4256 26.9266 89.8572 26.6915C90.2888 26.4564 90.7785 26.3388 91.3262 26.3388C91.8906 26.3388 92.3844 26.4564 92.8077 26.6915C93.231 26.9266 93.5589 27.2468 93.7912 27.6522C94.0236 28.0576 94.1398 28.5116 94.1398 29.0142C94.1398 29.5169 94.0236 29.9749 93.7912 30.3884C93.5589 30.7937 93.2269 31.114 92.7953 31.3491C92.372 31.5842 91.8782 31.7017 91.3138 31.7017C90.766 31.7017 90.2763 31.5923 89.8447 31.3734C89.4214 31.1464 89.0853 30.8343 88.8363 30.437C88.5956 30.0317 88.4753 29.5574 88.4753 29.0142ZM89.6331 29.0264C89.6331 29.3507 89.7078 29.6466 89.8572 29.9141C90.0066 30.1735 90.2058 30.3803 90.4548 30.5343C90.7121 30.6883 90.9942 30.7654 91.3013 30.7654C91.625 30.7654 91.9114 30.6883 92.1604 30.5343C92.4176 30.3803 92.6168 30.1735 92.7579 29.9141C92.899 29.6466 92.9696 29.3507 92.9696 29.0264C92.9696 28.7021 92.899 28.4102 92.7579 28.1508C92.6168 27.8833 92.4176 27.6725 92.1604 27.5184C91.9114 27.3563 91.625 27.2752 91.3013 27.2752C90.9859 27.2752 90.6996 27.3563 90.4423 27.5184C90.1933 27.6806 89.9941 27.8954 89.8447 28.163C89.7036 28.4224 89.6331 28.7102 89.6331 29.0264Z" fill="white"/>
<path d="M96.7408 26.5456L96.8528 28.0049L96.7906 27.8103C96.9234 27.5022 97.1143 27.2428 97.3633 27.032C97.6206 26.8131 97.8862 26.6469 98.16 26.5334C98.4422 26.4118 98.6871 26.351 98.8946 26.351L98.8323 27.4698C98.4422 27.4455 98.0978 27.5184 97.799 27.6887C97.5085 27.8589 97.2761 28.0859 97.1018 28.3697C96.9358 28.6534 96.8528 28.9575 96.8528 29.2817V31.5801H95.7075V26.5456H96.7408Z" fill="white"/>
<path d="M102.408 31.7017C101.927 31.7017 101.487 31.6004 101.088 31.3977C100.698 31.195 100.387 30.8991 100.155 30.51C99.9305 30.1127 99.8185 29.6303 99.8185 29.0628C99.8185 28.5035 99.9388 28.0211 100.18 27.6157C100.42 27.2023 100.74 26.8861 101.138 26.6672C101.545 26.4483 101.989 26.3388 102.47 26.3388C102.952 26.3388 103.358 26.4483 103.69 26.6672C104.022 26.878 104.275 27.1293 104.45 27.4212L104.375 27.6157L104.487 26.5456H105.558V31.5801H104.4V30.2668L104.524 30.5586C104.491 30.6397 104.416 30.7451 104.3 30.8748C104.192 30.9964 104.043 31.1221 103.852 31.2518C103.67 31.3815 103.458 31.4909 103.217 31.5801C102.976 31.6612 102.707 31.7017 102.408 31.7017ZM102.719 30.7654C103.01 30.7654 103.271 30.7127 103.504 30.6073C103.736 30.5019 103.927 30.3559 104.076 30.1695C104.234 29.9749 104.342 29.7439 104.4 29.4763V28.4913C104.333 28.2481 104.217 28.0373 104.051 27.8589C103.885 27.6725 103.686 27.5306 103.454 27.4333C103.221 27.3279 102.964 27.2752 102.682 27.2752C102.375 27.2752 102.093 27.3482 101.835 27.4941C101.578 27.64 101.371 27.8427 101.213 28.1022C101.063 28.3616 100.989 28.6656 100.989 29.0142C100.989 29.3385 101.068 29.6344 101.225 29.9019C101.383 30.1695 101.595 30.3803 101.86 30.5343C102.126 30.6883 102.412 30.7654 102.719 30.7654Z" fill="white"/>
<path d="M108.059 24.3323H109.217V26.5699H110.636V27.4576H109.217V31.5801H108.059V27.4576H107.113V26.5699H108.059V24.3323Z" fill="white"/>
<path d="M112.035 26.5456H113.193V31.5801H112.035V26.5456ZM111.948 24.7215C111.948 24.5431 112.019 24.3931 112.16 24.2715C112.309 24.1499 112.471 24.0891 112.645 24.0891C112.82 24.0891 112.973 24.1499 113.106 24.2715C113.247 24.3931 113.318 24.5431 113.318 24.7215C113.318 24.9079 113.247 25.062 113.106 25.1836C112.973 25.2971 112.82 25.3538 112.645 25.3538C112.471 25.3538 112.309 25.293 112.16 25.1714C112.019 25.0498 111.948 24.8998 111.948 24.7215Z" fill="white"/>
<path d="M114.748 29.0142C114.748 28.5116 114.869 28.0576 115.109 27.6522C115.358 27.2468 115.698 26.9266 116.13 26.6915C116.562 26.4564 117.051 26.3388 117.599 26.3388C118.163 26.3388 118.657 26.4564 119.081 26.6915C119.504 26.9266 119.832 27.2468 120.064 27.6522C120.297 28.0576 120.413 28.5116 120.413 29.0142C120.413 29.5169 120.297 29.9749 120.064 30.3884C119.832 30.7937 119.5 31.114 119.068 31.3491C118.645 31.5842 118.151 31.7017 117.587 31.7017C117.039 31.7017 116.549 31.5923 116.118 31.3734C115.694 31.1464 115.358 30.8343 115.109 30.437C114.869 30.0317 114.748 29.5574 114.748 29.0142ZM115.906 29.0264C115.906 29.3507 115.981 29.6466 116.13 29.9141C116.279 30.1735 116.479 30.3803 116.728 30.5343C116.985 30.6883 117.267 30.7654 117.574 30.7654C117.898 30.7654 118.184 30.6883 118.433 30.5343C118.691 30.3803 118.89 30.1735 119.031 29.9141C119.172 29.6466 119.242 29.3507 119.242 29.0264C119.242 28.7021 119.172 28.4102 119.031 28.1508C118.89 27.8833 118.691 27.6725 118.433 27.5184C118.184 27.3563 117.898 27.2752 117.574 27.2752C117.259 27.2752 116.972 27.3563 116.715 27.5184C116.466 27.6806 116.267 27.8954 116.118 28.163C115.977 28.4224 115.906 28.7102 115.906 29.0264Z" fill="white"/>
<path d="M123.014 26.5456L123.113 27.7738L123.063 27.5792C123.229 27.2063 123.499 26.9104 123.873 26.6915C124.246 26.4645 124.678 26.351 125.167 26.351C125.657 26.351 126.056 26.4929 126.363 26.7766C126.678 27.0523 126.84 27.413 126.848 27.8589V31.5801H125.678V28.2602C125.67 27.9846 125.587 27.7617 125.429 27.5914C125.279 27.413 125.043 27.3239 124.719 27.3239C124.42 27.3239 124.151 27.4049 123.91 27.5671C123.669 27.7292 123.478 27.9522 123.337 28.2359C123.205 28.5197 123.138 28.848 123.138 29.2209V31.5801H121.98V26.5456H123.014Z" fill="white"/>
</svg>
