<svg width="136" height="37" viewBox="0 0 136 37" fill="none" xmlns="http://www.w3.org/2000/svg">
<path fill-rule="evenodd" clip-rule="evenodd" d="M0.00141686 10.897C0.00141686 16.9101 0.00135846 21.9907 0.00141686 22.1512C0.163154 21.9907 0.648366 21.6696 1.94226 20.7065L3.88311 19.2619L3.89702 13.8087L3.88311 8.66809L5.11005 9.82186C6.42206 11.2597 18.4624 22.1512 18.7629 22.1512C18.7629 21.9907 18.7629 16.9184 18.7629 10.9153C18.7629 4.91209 18.7603 0.160513 18.7603 0C18.6577 0 17.4664 0.802564 16.6361 1.36059L14.8812 2.58419V13.5499L13.6682 12.5204C13.0012 11.9541 9.92303 9.08607 6.82802 6.14708C3.73302 3.20777 0.330592 0.230817 0.000647968 0C-0.00117086 0.963077 0.00141686 0.314043 0.00141686 10.897ZM24.5855 3.53168H39.4653V0.000402219H24.5855V3.53168ZM45.6133 7.78527C45.6152 16.0912 45.797 17.4481 47.1449 19.2205C49.5237 22.3473 56.6023 22.8658 59.7281 20.1422C62.0364 18.1306 62.2327 17.2337 62.3644 8.1063L62.4812 0.000402219H58.5503V7.72107C58.5503 16.4443 58.6355 16.8794 56.2324 18.3262C54.2689 19.5084 51.198 18.6302 49.9413 16.5698C49.3969 15.678 49.32 14.731 49.2252 7.78527L49.1191 0.000402219H45.6113L45.6133 7.78527ZM68.2545 3.49123L74.0441 3.59171C79.0773 3.67903 79.9174 3.76764 80.4764 4.27036C81.8308 5.48865 81.5671 8.24979 80.03 8.94481C79.5273 9.1721 77.1443 9.31014 73.7222 9.31014H68.2479V13.1811H76.5782L80.744 22.1844H83.1471C84.5889 22.1844 85.0696 22.1844 85.5502 22.1844C85.5502 22.1844 84.3626 19.609 83.0959 17.3104C81.8295 15.0122 80.8471 13.0957 80.9124 13.0514C80.9781 13.0074 81.417 12.8077 81.888 12.6074C83.7089 11.8331 85.0752 9.10854 85.0752 6.25173C85.0752 3.32494 83.9068 1.56091 81.2349 0.452727C80.4308 0.119182 78.5815 0.000402219 74.1993 0.000402219H68.2545V3.49123ZM97.4597 0.46621C91.0831 2.44373 87.913 8.80966 90.2615 14.9201C91.2458 17.4812 93.5415 19.8741 96.1131 21.0195C97.085 21.4524 99.2739 21.8301 100.93 21.7021C106.201 21.2947 108.768 19.285 110.59 15.4096C111.807 12.8215 111.77 9.28093 110.497 6.51016C108.19 1.48932 102.566 -1.11773 97.4597 0.46621ZM116.31 11.0922C116.31 17.0954 116.31 22.1844 116.31 22.1844C116.407 22.1844 117.594 21.2375 118.561 20.5133L120.319 19.1964V8.68085L127.936 15.357L135.535 22.1844L135.461 11.0915C135.507 5.11402 135.535 0.160513 135.535 0C135.049 0.321026 135.535 0 133.432 1.44461L131.656 2.5682V8.05076V13.5035L124.128 6.72685C120.077 3.02735 116.396 0 116.31 0C116.31 0 116.31 5.08902 116.31 11.0922ZM98.6301 3.97341C96.8309 4.45399 95.558 5.39845 94.3829 7.12524C92.1768 10.3663 93.0718 14.7711 96.3544 16.8276C98.9151 18.4321 101.349 18.599 103.822 17.3403C105.324 16.5756 106.235 15.5756 107.044 13.8045C108.668 10.2498 107.264 6.28159 103.789 4.60391C101.878 3.6816 100.4 3.50086 98.6301 3.97341ZM24.5855 8.98871C24.5828 9.14923 24.5855 10.1875 24.5855 11.1294V12.8414H37.8479V8.98912H31.4325C27.9037 8.98912 24.7445 8.98871 24.5855 8.98871ZM24.5828 22.1508H32.0895L39.4653 22.1634V18.2989H24.5828V22.1508Z" fill="#1B193F"/>
<path d="M73.1925 33.7409C72.9444 33.9343 72.6477 34.0881 72.3023 34.2024C71.9568 34.3167 71.6114 34.3738 71.266 34.3738C70.6637 34.3738 70.1366 34.2551 69.6849 34.0178C69.2332 33.7804 68.8789 33.4508 68.622 33.0289C68.374 32.5981 68.25 32.0927 68.25 31.5125C68.25 30.9324 68.3829 30.4269 68.6486 29.9962C68.9232 29.5655 69.2775 29.2358 69.7115 29.0073C70.1544 28.7699 70.6282 28.6513 71.1331 28.6513C71.576 28.6513 71.9701 28.7128 72.3156 28.8359C72.6699 28.9589 72.971 29.1259 73.219 29.3369L72.6079 30.128C72.4484 30.005 72.2536 29.8951 72.0233 29.7984C71.793 29.7017 71.5317 29.6534 71.2394 29.6534C70.9205 29.6534 70.6238 29.7369 70.3492 29.9039C70.0835 30.0621 69.8709 30.2819 69.7115 30.5632C69.5609 30.8445 69.4856 31.1609 69.4856 31.5125C69.4856 31.8466 69.5653 32.1586 69.7248 32.4487C69.8842 32.73 70.1056 32.9541 70.3891 33.1212C70.6725 33.2794 70.9958 33.3585 71.359 33.3585C71.5981 33.3585 71.8151 33.3233 72.01 33.253C72.2137 33.1827 72.3953 33.086 72.5547 32.9629L73.1925 33.7409Z" fill="#1B193F"/>
<path d="M74.3092 31.4598C74.3092 30.9148 74.4376 30.4225 74.6945 29.983C74.9602 29.5435 75.3234 29.1963 75.784 28.9413C76.2446 28.6864 76.7672 28.559 77.3517 28.559C77.9541 28.559 78.4811 28.6864 78.9328 28.9413C79.3845 29.1963 79.7344 29.5435 79.9824 29.983C80.2304 30.4225 80.3544 30.9148 80.3544 31.4598C80.3544 32.0048 80.2304 32.5014 79.9824 32.9498C79.7344 33.3893 79.3801 33.7365 78.9195 33.9914C78.4678 34.2463 77.9408 34.3738 77.3385 34.3738C76.7539 34.3738 76.2313 34.2551 75.7707 34.0178C75.319 33.7717 74.9602 33.4332 74.6945 33.0025C74.4376 32.563 74.3092 32.0487 74.3092 31.4598ZM75.5448 31.473C75.5448 31.8246 75.6245 32.1454 75.784 32.4355C75.9434 32.7168 76.156 32.941 76.4217 33.108C76.6963 33.275 76.9974 33.3585 77.3252 33.3585C77.6706 33.3585 77.9762 33.275 78.2419 33.108C78.5165 32.941 78.7291 32.7168 78.8796 32.4355C79.0302 32.1454 79.1055 31.8246 79.1055 31.473C79.1055 31.1214 79.0302 30.8049 78.8796 30.5236C78.7291 30.2335 78.5165 30.005 78.2419 29.838C77.9762 29.6622 77.6706 29.5742 77.3252 29.5742C76.9886 29.5742 76.683 29.6622 76.4084 29.838C76.1427 30.0138 75.9301 30.2467 75.7707 30.5368C75.6201 30.8181 75.5448 31.1301 75.5448 31.473Z" fill="#1B193F"/>
<path d="M83.1302 28.7831L83.2498 30.3654L83.1833 30.1544C83.325 29.8204 83.5288 29.5391 83.7945 29.3105C84.0691 29.0732 84.3525 28.893 84.6448 28.7699C84.9459 28.6381 85.2072 28.5721 85.4287 28.5721L85.3623 29.7852C84.946 29.7588 84.5784 29.838 84.2595 30.0226C83.9495 30.2072 83.7015 30.4533 83.5155 30.761C83.3383 31.0686 83.2498 31.3983 83.2498 31.7499V34.2419H82.0274V28.7831H83.1302Z" fill="#1B193F"/>
<path d="M90.2645 34.3738C89.8482 34.3738 89.4452 34.2771 89.0555 34.0837C88.6746 33.8903 88.3779 33.631 88.1653 33.3058L88.245 32.9234V36.8659H87.0227V28.704H88.0856L88.2583 30.1017L88.1255 29.7193C88.3912 29.3853 88.7278 29.1084 89.1352 28.8886C89.5427 28.6688 89.9988 28.559 90.5037 28.559C91.0174 28.559 91.478 28.682 91.8854 28.9282C92.3017 29.1743 92.6295 29.5171 92.8686 29.9566C93.1078 30.3962 93.2273 30.9104 93.2273 31.4993C93.2273 32.0883 93.0989 32.5981 92.842 33.0289C92.5852 33.4596 92.2309 33.7936 91.7792 34.031C91.3363 34.2595 90.8314 34.3738 90.2645 34.3738ZM90.0254 33.3981C90.3797 33.3981 90.703 33.3189 90.9953 33.1607C91.2964 32.9937 91.5356 32.7696 91.7127 32.4883C91.8899 32.1982 91.9784 31.8729 91.9784 31.5125C91.9784 31.1433 91.8943 30.8181 91.726 30.5368C91.5577 30.2467 91.3319 30.0182 91.0484 29.8511C90.7738 29.6841 90.4638 29.6006 90.1184 29.6006C89.7995 29.6006 89.5116 29.6622 89.2548 29.7852C88.9979 29.9083 88.7853 30.0797 88.617 30.2995C88.4488 30.5104 88.3292 30.7566 88.2583 31.0378V31.9477C88.3026 32.2289 88.4089 32.4795 88.5772 32.6992C88.7455 32.919 88.9536 33.0904 89.2016 33.2135C89.4585 33.3365 89.7331 33.3981 90.0254 33.3981Z" fill="#1B193F"/>
<path d="M94.4201 31.4598C94.4201 30.9148 94.5485 30.4225 94.8054 29.983C95.0711 29.5435 95.4343 29.1963 95.8949 28.9413C96.3554 28.6864 96.878 28.559 97.4626 28.559C98.0649 28.559 98.5919 28.6864 99.0437 28.9413C99.4954 29.1963 99.8453 29.5435 100.093 29.983C100.341 30.4225 100.465 30.9148 100.465 31.4598C100.465 32.0048 100.341 32.5014 100.093 32.9498C99.8453 33.3893 99.491 33.7365 99.0304 33.9914C98.5787 34.2463 98.0516 34.3738 97.4493 34.3738C96.8647 34.3738 96.3421 34.2551 95.8816 34.0178C95.4298 33.7717 95.0711 33.4332 94.8054 33.0025C94.5485 32.563 94.4201 32.0487 94.4201 31.4598ZM95.6557 31.473C95.6557 31.8246 95.7354 32.1454 95.8949 32.4355C96.0543 32.7168 96.2669 32.941 96.5326 33.108C96.8072 33.275 97.1083 33.3585 97.436 33.3585C97.7815 33.3585 98.0871 33.275 98.3528 33.108C98.6274 32.941 98.8399 32.7168 98.9905 32.4355C99.1411 32.1454 99.2164 31.8246 99.2164 31.473C99.2164 31.1214 99.1411 30.8049 98.9905 30.5236C98.8399 30.2335 98.6274 30.005 98.3528 29.838C98.0871 29.6622 97.7815 29.5742 97.436 29.5742C97.0995 29.5742 96.7939 29.6622 96.5193 29.838C96.2536 30.0138 96.041 30.2467 95.8816 30.5368C95.731 30.8181 95.6557 31.1301 95.6557 31.473Z" fill="#1B193F"/>
<path d="M103.241 28.7831L103.361 30.3654L103.294 30.1544C103.436 29.8204 103.64 29.5391 103.905 29.3105C104.18 29.0732 104.463 28.893 104.756 28.7699C105.057 28.6381 105.318 28.5721 105.54 28.5721L105.473 29.7852C105.057 29.7588 104.689 29.838 104.37 30.0226C104.06 30.2072 103.812 30.4533 103.626 30.761C103.449 31.0686 103.361 31.3983 103.361 31.7499V34.2419H102.138V28.7831H103.241Z" fill="#1B193F"/>
<path d="M109.289 34.3738C108.775 34.3738 108.306 34.2639 107.881 34.0442C107.464 33.8244 107.132 33.5035 106.884 33.0816C106.645 32.6509 106.526 32.1279 106.526 31.5125C106.526 30.906 106.654 30.383 106.911 29.9434C107.168 29.4951 107.509 29.1523 107.934 28.915C108.368 28.6776 108.842 28.559 109.355 28.559C109.869 28.559 110.303 28.6776 110.658 28.915C111.012 29.1435 111.282 29.416 111.468 29.7325L111.388 29.9434L111.508 28.7831H112.65V34.2419H111.415V32.8179L111.548 33.1344C111.512 33.2223 111.433 33.3365 111.309 33.4772C111.193 33.609 111.034 33.7453 110.83 33.8859C110.635 34.0266 110.41 34.1452 110.153 34.2419C109.896 34.3298 109.608 34.3738 109.289 34.3738ZM109.621 33.3585C109.931 33.3585 110.21 33.3014 110.458 33.1871C110.706 33.0728 110.91 32.9146 111.069 32.7124C111.238 32.5014 111.353 32.2509 111.415 31.9608V30.8928C111.344 30.6291 111.22 30.4005 111.043 30.2072C110.866 30.005 110.653 29.8511 110.405 29.7457C110.157 29.6314 109.883 29.5742 109.581 29.5742C109.254 29.5742 108.952 29.6534 108.678 29.8116C108.403 29.9698 108.182 30.1896 108.014 30.4709C107.854 30.7522 107.774 31.0818 107.774 31.4598C107.774 31.8114 107.859 32.1322 108.027 32.4223C108.195 32.7124 108.421 32.941 108.704 33.108C108.988 33.275 109.293 33.3585 109.621 33.3585Z" fill="#1B193F"/>
<path d="M115.32 26.3833H116.556V28.8095H118.07V29.772H116.556V34.2419H115.32V29.772H114.31V28.8095H115.32V26.3833Z" fill="#1B193F"/>
<path d="M119.563 28.7831H120.799V34.2419H119.563V28.7831ZM119.47 26.8053C119.47 26.6119 119.546 26.4493 119.696 26.3174C119.856 26.1856 120.028 26.1196 120.214 26.1196C120.4 26.1196 120.564 26.1856 120.706 26.3174C120.857 26.4493 120.932 26.6119 120.932 26.8053C120.932 27.0075 120.857 27.1745 120.706 27.3063C120.564 27.4294 120.4 27.4909 120.214 27.4909C120.028 27.4909 119.856 27.425 119.696 27.2931C119.546 27.1613 119.47 26.9987 119.47 26.8053Z" fill="#1B193F"/>
<path d="M122.459 31.4598C122.459 30.9148 122.587 30.4225 122.844 29.983C123.11 29.5435 123.473 29.1963 123.933 28.9413C124.394 28.6864 124.916 28.559 125.501 28.559C126.103 28.559 126.63 28.6864 127.082 28.9413C127.534 29.1963 127.884 29.5435 128.132 29.983C128.38 30.4225 128.504 30.9148 128.504 31.4598C128.504 32.0048 128.38 32.5014 128.132 32.9498C127.884 33.3893 127.529 33.7365 127.069 33.9914C126.617 34.2463 126.09 34.3738 125.488 34.3738C124.903 34.3738 124.381 34.2551 123.92 34.0178C123.468 33.7717 123.11 33.4332 122.844 33.0025C122.587 32.563 122.459 32.0487 122.459 31.4598ZM123.694 31.473C123.694 31.8246 123.774 32.1454 123.933 32.4355C124.093 32.7168 124.305 32.941 124.571 33.108C124.846 33.275 125.147 33.3585 125.474 33.3585C125.82 33.3585 126.126 33.275 126.391 33.108C126.666 32.941 126.878 32.7168 127.029 32.4355C127.18 32.1454 127.255 31.8246 127.255 31.473C127.255 31.1214 127.18 30.8049 127.029 30.5236C126.878 30.2335 126.666 30.005 126.391 29.838C126.126 29.6622 125.82 29.5742 125.474 29.5742C125.138 29.5742 124.832 29.6622 124.558 29.838C124.292 30.0138 124.079 30.2467 123.92 30.5368C123.769 30.8181 123.694 31.1301 123.694 31.473Z" fill="#1B193F"/>
<path d="M131.279 28.7831L131.386 30.1149L131.333 29.9039C131.51 29.4995 131.798 29.1787 132.196 28.9413C132.595 28.6952 133.055 28.5721 133.578 28.5721C134.101 28.5721 134.526 28.726 134.853 29.0336C135.19 29.3325 135.363 29.7237 135.372 30.2072V34.2419H134.123V30.6423C134.114 30.3434 134.025 30.1017 133.857 29.9171C133.698 29.7237 133.445 29.627 133.1 29.627C132.781 29.627 132.493 29.7149 132.236 29.8907C131.979 30.0665 131.776 30.3082 131.625 30.6159C131.483 30.9236 131.412 31.2796 131.412 31.6839V34.2419H130.177V28.7831H131.279Z" fill="#1B193F"/>
</svg>
