<svg width="34" height="34" viewBox="0 0 34 34" fill="none" xmlns="http://www.w3.org/2000/svg">
<circle cx="16.9766" cy="17.4336" r="16.5" fill="#EEF6FC"/>
<path d="M20.2247 24.349C20.2249 24.8115 20.0502 25.257 19.7357 25.5961C19.4212 25.9353 18.9901 26.143 18.5289 26.1777L18.3914 26.1823H16.558C16.0955 26.1824 15.65 26.0078 15.3109 25.6933C14.9717 25.3788 14.764 24.9477 14.7293 24.4865L14.7247 24.349H20.2247ZM17.4747 8.76563C19.1384 8.7656 20.7371 9.41178 21.9336 10.5679C23.13 11.7239 23.8307 13.2995 23.8877 14.9623L23.8914 15.1823V18.6326L25.5616 21.973C25.6344 22.1187 25.6709 22.28 25.6679 22.4429C25.6648 22.6058 25.6223 22.7656 25.544 22.9085C25.4657 23.0514 25.3539 23.1732 25.2182 23.2635C25.0826 23.3537 24.927 23.4098 24.765 23.4268L24.6595 23.4323H10.2899C10.1269 23.4323 9.96627 23.3929 9.82185 23.3172C9.67743 23.2416 9.5535 23.1321 9.46068 22.9981C9.36786 22.8641 9.30891 22.7096 9.28889 22.5478C9.26886 22.386 9.28836 22.2218 9.34571 22.0692L9.38788 21.973L11.058 18.6326V15.1823C11.058 13.4805 11.7341 11.8484 12.9374 10.645C14.1408 9.44166 15.7729 8.76563 17.4747 8.76563Z" fill="#1B193F"/>
</svg>
