<svg width="29" height="24" viewBox="0 0 29 24" fill="none" xmlns="http://www.w3.org/2000/svg">
<g clip-path="url(#clip0_1163_42362)">
<path d="M14.2169 22.2773C14.0755 22.1347 13.996 21.9413 13.996 21.7396C13.996 21.5379 14.0755 21.3445 14.2169 21.2019L17.2677 18.1269H11.3548C6.77063 18.1269 3.05428 14.3811 3.05428 9.76057C3.05428 9.55886 3.13378 9.3654 3.27529 9.22277C3.4168 9.08013 3.60874 9 3.80886 9C4.009 9 4.20093 9.08013 4.34244 9.22277C4.48396 9.3654 4.56346 9.55886 4.56346 9.76057C4.56346 11.576 5.27897 13.3171 6.55259 14.6008C7.8262 15.8845 9.5536 16.6057 11.3548 16.6057H17.2677L14.2169 13.5307C14.0795 13.3873 14.0034 13.1952 14.0051 12.9957C14.0069 12.7963 14.0862 12.6056 14.2261 12.4645C14.366 12.3235 14.5553 12.2435 14.7531 12.2418C14.951 12.2401 15.1416 12.3167 15.2839 12.4553L19.6228 16.8286C19.7643 16.9712 19.8438 17.1646 19.8438 17.3663C19.8438 17.568 19.7643 17.7614 19.6228 17.904L15.2839 22.2773C15.1424 22.4199 14.9505 22.5 14.7504 22.5C14.5503 22.5 14.3584 22.4199 14.2169 22.2773Z" fill="#686F7B" stroke="#686F7B" stroke-width="0.2"/>
<path d="M12.5014 0.613568C12.6414 0.748856 12.7201 0.932321 12.7201 1.12362C12.7201 1.31492 12.6414 1.49838 12.5014 1.63367L9.48045 4.5504H15.3355C19.8747 4.5504 23.5546 8.10344 23.5546 12.4861C23.5546 12.6775 23.4759 12.861 23.3357 12.9962C23.1956 13.1315 23.0056 13.2075 22.8074 13.2075C22.6092 13.2075 22.4192 13.1315 22.2791 12.9962C22.1389 12.861 22.0602 12.6775 22.0602 12.4861C22.0602 10.7641 21.3517 9.11262 20.0906 7.89497C18.8294 6.67733 17.119 5.99326 15.3355 5.99326H9.48045L12.5014 8.91C12.6375 9.04606 12.7128 9.22829 12.7111 9.41745C12.7094 9.60661 12.6308 9.78755 12.4923 9.92131C12.3537 10.0551 12.1663 10.1309 11.9704 10.1326C11.7745 10.1342 11.5857 10.0615 11.4448 9.9301L7.14846 5.78188C7.00838 5.64659 6.92969 5.46313 6.92969 5.27183C6.92969 5.08054 7.00838 4.89707 7.14846 4.76178L11.4448 0.613568C11.5849 0.478321 11.775 0.402344 11.9731 0.402344C12.1712 0.402344 12.3612 0.478321 12.5014 0.613568Z" fill="#686F7B" stroke="#686F7B" stroke-width="0.2"/>
</g>
<defs>
<clipPath id="clip0_1163_42362">
<rect width="29" height="24" fill="white" transform="matrix(-1 0 0 -1 29 24)"/>
</clipPath>
</defs>
</svg>
