<svg width="68" height="68" viewBox="0 0 68 68" fill="none" xmlns="http://www.w3.org/2000/svg">
<circle cx="34" cy="34" r="34" fill="#EE3030"/>
<path d="M34.0001 41.6229C35.756 41.6209 37.4394 40.9225 38.681 39.6809C39.9226 38.4393 40.6211 36.7559 40.623 35V25.3667C40.623 23.6102 39.9253 21.9256 38.6832 20.6836C37.4412 19.4415 35.7566 18.7437 34.0001 18.7437C32.2436 18.7437 30.5591 19.4415 29.317 20.6836C28.075 21.9256 27.3772 23.6102 27.3772 25.3667V35C27.3792 36.7559 28.0776 38.4393 29.3192 39.6809C30.5608 40.9225 32.2442 41.6209 34.0001 41.6229ZM28.5814 25.3667C28.5814 23.9295 29.1523 22.5512 30.1685 21.535C31.1847 20.5188 32.563 19.9479 34.0001 19.9479C35.4373 19.9479 36.8156 20.5188 37.8318 21.535C38.848 22.5512 39.4189 23.9295 39.4189 25.3667V35C39.4189 36.4371 38.848 37.8154 37.8318 38.8316C36.8156 39.8478 35.4373 40.4187 34.0001 40.4187C32.563 40.4187 31.1847 39.8478 30.1685 38.8316C29.1523 37.8154 28.5814 36.4371 28.5814 35V25.3667ZM34.6022 46.423V50.6542C34.6022 50.8138 34.5388 50.967 34.4259 51.0799C34.313 51.1928 34.1598 51.2562 34.0001 51.2562C33.8404 51.2562 33.6873 51.1928 33.5744 51.0799C33.4615 50.967 33.398 50.8138 33.398 50.6542V46.423C30.4736 46.2656 27.7206 44.9939 25.7049 42.8693C23.6892 40.7447 22.564 37.9286 22.5605 35C22.5605 34.8403 22.624 34.6872 22.7369 34.5743C22.8498 34.4613 23.0029 34.3979 23.1626 34.3979C23.3223 34.3979 23.4755 34.4613 23.5884 34.5743C23.7013 34.6872 23.7647 34.8403 23.7647 35C23.7647 37.7146 24.8431 40.318 26.7626 42.2375C28.6821 44.157 31.2855 45.2354 34.0001 45.2354C36.7147 45.2354 39.3182 44.157 41.2377 42.2375C43.1572 40.318 44.2355 37.7146 44.2355 35C44.2355 34.8403 44.299 34.6872 44.4119 34.5743C44.5248 34.4613 44.6779 34.3979 44.8376 34.3979C44.9973 34.3979 45.1505 34.4613 45.2634 34.5743C45.3763 34.6872 45.4397 34.8403 45.4397 35C45.4363 37.9286 44.311 40.7447 42.2953 42.8693C40.2796 44.9939 37.5266 46.2656 34.6022 46.423Z" fill="white" stroke="white" stroke-width="1.13333"/>
</svg>
