<svg width="25" height="25" viewBox="0 0 25 25" fill="none" xmlns="http://www.w3.org/2000/svg">
<path d="M20.7639 13.5845C20.5672 15.0844 19.9659 16.5026 19.0245 17.6867C18.0831 18.8709 16.8371 19.7765 15.4201 20.3064C14.0031 20.8363 12.4687 20.9704 10.9812 20.6945C9.49382 20.4185 8.10958 19.7429 6.97696 18.74C5.84435 17.7372 5.00609 16.4449 4.55209 15.0018C4.09809 13.5588 4.04547 12.0193 4.39988 10.5486C4.7543 9.07794 5.50237 7.73147 6.56386 6.65361C7.62536 5.57575 8.96024 4.80718 10.4253 4.43032C14.4868 3.38865 18.691 5.47928 20.2431 9.37511" stroke="#4B4B4B" stroke-width="2" stroke-linecap="round" stroke-linejoin="round"/>
<path d="M20.8333 4.16675V9.37508H15.625" stroke="#4B4B4B" stroke-width="2" stroke-linecap="round" stroke-linejoin="round"/>
</svg>
