<svg width="24" height="24" viewBox="0 0 24 24" fill="none" xmlns="http://www.w3.org/2000/svg">
<path fill-rule="evenodd" clip-rule="evenodd" d="M13.083 19.063C12.639 19.507 12.24 19.906 11.873 20.25H21C21.1989 20.25 21.3897 20.329 21.5303 20.4697C21.671 20.6103 21.75 20.8011 21.75 21C21.75 21.1989 21.671 21.3897 21.5303 21.5303C21.3897 21.671 21.1989 21.75 21 21.75H9C8.982 21.75 8.963 21.75 8.945 21.748C8.242 21.721 7.645 21.417 7.059 20.97C6.471 20.522 5.815 19.866 5.013 19.063L4.937 18.987C4.134 18.185 3.478 17.529 3.03 16.941C2.562 16.327 2.25 15.701 2.25 14.952C2.25 14.204 2.562 13.577 3.03 12.963C3.478 12.376 4.134 11.72 4.937 10.917L10.917 4.937C11.72 4.134 12.376 3.478 12.963 3.03C13.577 2.562 14.203 2.25 14.953 2.25C15.701 2.25 16.327 2.562 16.941 3.03C17.529 3.478 18.185 4.134 18.987 4.937L19.063 5.013C19.866 5.815 20.522 6.471 20.97 7.059C21.438 7.673 21.75 8.299 21.75 9.048C21.75 9.796 21.438 10.423 20.97 11.037C20.522 11.624 19.866 12.28 19.063 13.083L13.083 19.063ZM11.94 6.035C12.79 5.185 13.375 4.602 13.873 4.223C14.353 3.856 14.663 3.75 14.953 3.75C15.241 3.75 15.551 3.856 16.032 4.223C16.529 4.603 17.115 5.185 17.965 6.035C18.815 6.885 19.398 7.471 19.778 7.968C20.144 8.449 20.25 8.758 20.25 9.048C20.25 9.337 20.144 9.647 19.777 10.127C19.397 10.625 18.815 11.21 17.965 12.06L13.771 16.253L7.747 10.229L11.94 6.035ZM9.048 20.25C9.337 20.25 9.647 20.144 10.127 19.777C10.625 19.397 11.21 18.815 12.06 17.965L12.71 17.314L6.686 11.289L6.036 11.939C5.186 12.789 4.602 13.375 4.223 13.873C3.856 14.353 3.75 14.663 3.75 14.953C3.75 15.241 3.856 15.551 4.223 16.032C4.603 16.529 5.185 17.115 6.035 17.965C6.885 18.815 7.471 19.398 7.968 19.778C8.449 20.144 8.758 20.25 9.048 20.25Z" fill="white"/>
</svg>
