<svg width="24" height="24" viewBox="0 0 24 24" fill="none" xmlns="http://www.w3.org/2000/svg">
<g clip-path="url(#clip0_478_13467)">
<path d="M5.61987 22.0942C5.71126 22.3943 5.89648 22.6571 6.14833 22.8442C6.40017 23.0312 6.70536 23.1326 7.01907 23.1334C7.16121 23.1335 7.30264 23.1133 7.43907 23.0734L16.9479 20.2102L18.6591 19.987C18.8494 19.9624 19.0329 19.9006 19.1993 19.805C19.3656 19.7094 19.5115 19.5819 19.6285 19.4299C19.7456 19.2778 19.8315 19.1042 19.8813 18.919C19.9312 18.7337 19.944 18.5404 19.9191 18.3502L19.0167 11.4622L21.8583 7.10377L22.5591 6.04537L22.8951 5.51977C23.1309 5.15886 23.2137 4.71905 23.1253 4.2971C23.0368 3.87514 22.7844 3.5056 22.4235 3.26977C22.0626 3.03394 21.6228 2.95113 21.2008 3.03958C20.7788 3.12802 20.4093 3.38046 20.1735 3.74137L19.8279 4.27177L19.1367 5.32777L18.3615 6.51337L17.7831 2.10937C17.7582 1.9193 17.6962 1.73599 17.6004 1.56991C17.5047 1.40383 17.3772 1.25824 17.2252 1.14145C17.0732 1.02467 16.8997 0.938973 16.7146 0.889267C16.5294 0.839562 16.3363 0.826819 16.1463 0.851767L6.04707 2.17897C5.67967 2.22641 5.34422 2.41226 5.10918 2.6986C4.87414 2.98493 4.75721 3.35017 4.78227 3.71977L1.87827 4.59337C1.50791 4.7049 1.19699 4.95891 1.01383 5.29959C0.830665 5.64026 0.790253 6.03971 0.901472 6.41017L5.61987 22.0942ZM20.2335 4.96537L20.9919 5.45977L21.7479 5.95417L21.4503 6.41017L19.9359 5.42137L20.2335 4.96537ZM20.7759 4.13257C20.9073 3.93143 21.1133 3.79074 21.3484 3.74146C21.5836 3.69217 21.8287 3.73833 22.0299 3.86977C22.231 4.00121 22.3717 4.20717 22.421 4.44234C22.4703 4.67751 22.4241 4.92263 22.2927 5.12377L22.1439 5.35177L20.6391 4.36057L20.7759 4.13257ZM19.5423 6.02377L20.3007 6.51817L21.0567 7.01257L16.4367 14.0878L15.6783 13.5934L14.9223 13.099L19.5423 6.02377ZM14.0223 15.6982L14.1663 15.2374C14.4076 15.2998 14.6218 15.4398 14.7759 15.6358L14.4111 15.9526C14.3717 15.9883 14.3216 16.01 14.2686 16.0142C14.2156 16.0184 14.1627 16.0049 14.1182 15.9758C14.0738 15.9467 14.0402 15.9036 14.0228 15.8534C14.0055 15.8031 14.0053 15.7485 14.0223 15.6982ZM15.3183 15.163C15.0766 14.8649 14.7476 14.65 14.3775 14.5486L14.6175 13.7638L15.9351 14.6254L15.3183 15.163ZM5.64867 3.17497C5.70806 3.09776 5.78208 3.03302 5.8665 2.98443C5.95092 2.93583 6.04408 2.90435 6.14067 2.89177L16.2399 1.56697C16.2726 1.56459 16.3055 1.56459 16.3383 1.56697C16.5153 1.57056 16.6852 1.63739 16.8173 1.75536C16.9493 1.87333 17.0348 2.03465 17.0583 2.21017L17.7591 7.43977L15.9207 10.2502L12.3063 10.7302C12.2108 10.7362 12.1216 10.7799 12.0584 10.8517C11.9952 10.9235 11.963 11.0175 11.9691 11.113C11.9751 11.2084 12.0188 11.2976 12.0906 11.3608C12.1624 11.4241 12.2564 11.4562 12.3519 11.4502H12.3999L15.4023 11.0398L14.1231 13.0006C14.1226 13.0086 14.1226 13.0166 14.1231 13.0246C14.1139 13.0396 14.1066 13.0557 14.1015 13.0726L13.8783 13.7926L8.76147 14.4814C8.7142 14.4845 8.668 14.497 8.62553 14.518C8.58306 14.539 8.54514 14.5681 8.51394 14.6038C8.48274 14.6394 8.45887 14.6809 8.44369 14.7258C8.42851 14.7707 8.42232 14.8181 8.42547 14.8654C8.42862 14.9126 8.44106 14.9588 8.46206 15.0013C8.48306 15.0438 8.51223 15.0817 8.54788 15.1129C8.58354 15.1441 8.625 15.168 8.66988 15.1831C8.71476 15.1983 8.7622 15.2045 8.80947 15.2014H8.85507L13.6239 14.5774L13.3407 15.4942C13.279 15.6933 13.2838 15.9071 13.3544 16.1032C13.425 16.2993 13.5575 16.4672 13.7319 16.5814C13.8879 16.6842 14.0706 16.7393 14.2575 16.7398C14.4892 16.7383 14.7125 16.653 14.8863 16.4998L16.7775 14.863L16.7967 14.8414C16.8113 14.8278 16.8242 14.8125 16.8351 14.7958L18.3999 12.3958L19.1991 18.4438C19.212 18.5401 19.2057 18.6381 19.1806 18.732C19.1554 18.8259 19.112 18.9139 19.0527 18.991C18.9953 19.0673 18.9233 19.1314 18.8409 19.1796C18.7585 19.2278 18.6673 19.2591 18.5727 19.2718L8.46387 20.599C8.36758 20.6114 8.26978 20.6048 8.17606 20.5795C8.08233 20.5541 7.99452 20.5106 7.91763 20.4513C7.84074 20.392 7.77628 20.3182 7.72794 20.234C7.67959 20.1498 7.64831 20.0569 7.63587 19.9606L5.50227 3.72217C5.47675 3.52758 5.52939 3.33081 5.64867 3.17497ZM2.08707 5.27977L4.87107 4.44217L6.92067 20.0542C6.96702 20.404 7.13834 20.7252 7.40301 20.9585C7.66768 21.1919 8.00783 21.3216 8.36067 21.3238C8.42494 21.3237 8.48912 21.3189 8.55267 21.3094L12.5079 20.791L7.22787 22.3798C7.04105 22.4358 6.83964 22.4155 6.66778 22.3232C6.49593 22.231 6.36765 22.0744 6.31107 21.8878L1.59027 6.20377C1.56219 6.11048 1.55277 6.01257 1.56254 5.91563C1.57231 5.8187 1.60109 5.72464 1.64723 5.63883C1.69336 5.55302 1.75595 5.47715 1.83142 5.41554C1.90689 5.35393 1.99376 5.30779 2.08707 5.27977ZM9.34467 4.89577C9.33241 4.80127 9.35811 4.70576 9.41614 4.63018C9.47418 4.5546 9.55981 4.50511 9.65427 4.49257L15.4143 3.73417C15.4615 3.72802 15.5096 3.73125 15.5556 3.74366C15.6016 3.75607 15.6448 3.77743 15.6825 3.80652C15.7203 3.8356 15.752 3.87184 15.7758 3.91316C15.7995 3.95449 15.8149 4.00009 15.8211 4.04737C15.8272 4.09464 15.824 4.14267 15.8116 4.1887C15.7992 4.23472 15.7778 4.27786 15.7487 4.31563C15.7196 4.35341 15.6834 4.38508 15.6421 4.40885C15.6007 4.43262 15.5551 4.44802 15.5079 4.45417L9.74787 5.21017H9.70227C9.61475 5.20978 9.53032 5.17773 9.46459 5.11994C9.39886 5.06215 9.35626 4.98252 9.34467 4.89577ZM7.60227 8.41417C7.59625 8.36684 7.59969 8.31878 7.6124 8.27279C7.62511 8.22681 7.64684 8.1838 7.67631 8.14629C7.70579 8.10877 7.74243 8.07749 7.78411 8.05426C7.82578 8.03102 7.87166 8.01631 7.91907 8.01097L15.8391 6.95977C15.9345 6.94735 16.031 6.97338 16.1073 7.03212C16.1836 7.09085 16.2335 7.17749 16.2459 7.27297C16.2583 7.36844 16.2323 7.46494 16.1735 7.54123C16.1148 7.61752 16.0281 7.66735 15.9327 7.67977L8.00547 8.72617H7.95987C7.87271 8.72586 7.78858 8.69415 7.7229 8.63684C7.65722 8.57954 7.61439 8.50048 7.60227 8.41417ZM10.2927 11.3518C10.2994 11.3989 10.2968 11.447 10.2848 11.4931C10.2729 11.5392 10.2519 11.5825 10.2231 11.6204C10.1943 11.6584 10.1582 11.6902 10.117 11.7142C10.0758 11.7381 10.0303 11.7536 9.98307 11.7598L8.43027 11.9638H8.38467C8.28919 11.9701 8.1951 11.9383 8.12308 11.8753C8.05107 11.8123 8.00704 11.7232 8.00067 11.6278C7.99431 11.5323 8.02613 11.4382 8.08914 11.3662C8.15215 11.2942 8.24119 11.2501 8.33667 11.2438L9.88947 11.0398C9.93644 11.0337 9.98415 11.037 10.0299 11.0494C10.0756 11.0618 10.1184 11.0831 10.1558 11.1121C10.1933 11.1411 10.2246 11.1772 10.2481 11.2183C10.2716 11.2594 10.2867 11.3048 10.2927 11.3518ZM8.87907 18.1198C8.86681 18.0253 8.89251 17.9298 8.95054 17.8542C9.00858 17.7786 9.09421 17.7291 9.18867 17.7166L11.9511 17.3542C11.9983 17.3479 12.0464 17.3509 12.0925 17.3632C12.1386 17.3755 12.1818 17.3967 12.2197 17.4257C12.2576 17.4546 12.2894 17.4908 12.3133 17.5321C12.3372 17.5733 12.3528 17.6189 12.3591 17.6662C12.3654 17.7134 12.3623 17.7615 12.35 17.8076C12.3378 17.8537 12.3165 17.8969 12.2876 17.9348C12.2586 17.9727 12.2224 18.0045 12.1812 18.0284C12.1399 18.0523 12.0943 18.0679 12.0471 18.0742L9.27987 18.4294H9.23427C9.14774 18.4291 9.06421 18.3976 8.99898 18.3407C8.93375 18.2839 8.89118 18.2054 8.87907 18.1198Z" fill="#686F7B" stroke="#686F7B" stroke-width="0.2"/>
</g>
<defs>
<clipPath id="clip0_478_13467">
<rect width="24" height="24" fill="white"/>
</clipPath>
</defs>
</svg>
