<svg width="25" height="24" viewBox="0 0 25 24" fill="none" xmlns="http://www.w3.org/2000/svg">
<path d="M20.7638 18.9516L16.4259 14.6137C17.4683 13.3622 17.9881 11.7571 17.8772 10.1321C17.7663 8.5072 17.0332 6.98757 15.8304 5.88939C14.6276 4.7912 13.0477 4.19901 11.4194 4.23601C9.79107 4.27301 8.23971 4.93635 7.08803 6.08803C5.93635 7.23971 5.27301 8.79107 5.23601 10.4194C5.19901 12.0477 5.7912 13.6276 6.88939 14.8304C7.98757 16.0332 9.5072 16.7663 11.1321 16.8772C12.7571 16.9881 14.3622 16.4683 15.6137 15.4259L19.9516 19.7638L20.7638 18.9516ZM6.40372 10.5733C6.40372 9.55089 6.70691 8.5514 7.27496 7.70126C7.84301 6.85112 8.65039 6.18851 9.59502 5.79724C10.5396 5.40596 11.5791 5.30358 12.5819 5.50305C13.5847 5.70252 14.5058 6.19488 15.2288 6.91787C15.9518 7.64085 16.4442 8.56199 16.6436 9.5648C16.8431 10.5676 16.7407 11.607 16.3495 12.5517C15.9582 13.4963 15.2956 14.3037 14.4454 14.8717C13.5953 15.4398 12.5958 15.743 11.5733 15.743C10.2027 15.7414 8.88871 15.1963 7.91955 14.2271C6.95038 13.258 6.40524 11.9439 6.40372 10.5733Z" fill="#1B193F"/>
</svg>
