<svg width="18" height="18" viewBox="0 0 18 18" fill="none" xmlns="http://www.w3.org/2000/svg">
<path d="M2.175 5.36249C2.3625 5.17499 2.5845 5.08124 2.841 5.08124C3.0975 5.08124 3.31925 5.17499 3.50625 5.36249L9 10.8562L14.5125 5.34374C14.6875 5.16874 14.9062 5.08124 15.1687 5.08124C15.4312 5.08124 15.6562 5.17499 15.8437 5.36249C16.0312 5.54999 16.125 5.77199 16.125 6.02849C16.125 6.28499 16.0312 6.50674 15.8437 6.69374L9.525 12.9937C9.45 13.0687 9.36875 13.122 9.28125 13.1535C9.19375 13.185 9.1 13.2005 9 13.2C8.9 13.2 8.80625 13.1842 8.71875 13.1527C8.63125 13.1212 8.55 13.0682 8.475 12.9937L2.15625 6.67499C1.98125 6.49999 1.89375 6.28424 1.89375 6.02774C1.89375 5.77124 1.9875 5.54949 2.175 5.36249Z" fill="#1B193F"/>
</svg>
