<svg width="24" height="24" viewBox="0 0 24 24" fill="none" xmlns="http://www.w3.org/2000/svg">
<path d="M5.40769 6.956C6.50011 6.956 7.38569 6.07042 7.38569 4.978C7.38569 3.88558 6.50011 3 5.40769 3C4.31527 3 3.42969 3.88558 3.42969 4.978C3.42969 6.07042 4.31527 6.956 5.40769 6.956Z" stroke="#686F7B" stroke-width="1.5" stroke-linecap="round" stroke-linejoin="round"/>
<path d="M7.38281 4.97803H20.5695" stroke="#686F7B" stroke-width="1.5" stroke-linecap="round" stroke-linejoin="round"/>
<path d="M12.0014 13.5493C13.0939 13.5493 13.9794 12.6637 13.9794 11.5713C13.9794 10.4788 13.0939 9.59326 12.0014 9.59326C10.909 9.59326 10.0234 10.4788 10.0234 11.5713C10.0234 12.6637 10.909 13.5493 12.0014 13.5493Z" stroke="#686F7B" stroke-width="1.5" stroke-linecap="round" stroke-linejoin="round"/>
<path d="M3.42969 11.5713H10.023M13.979 11.5713H20.5724" stroke="#686F7B" stroke-width="1.5" stroke-linecap="round" stroke-linejoin="round"/>
<path d="M18.5952 20.143C19.6876 20.143 20.5732 19.2574 20.5732 18.165C20.5732 17.0726 19.6876 16.187 18.5952 16.187C17.5028 16.187 16.6172 17.0726 16.6172 18.165C16.6172 19.2574 17.5028 20.143 18.5952 20.143Z" stroke="#686F7B" stroke-width="1.5" stroke-linecap="round" stroke-linejoin="round"/>
<path d="M16.6164 18.1646H3.42969" stroke="#686F7B" stroke-width="1.5" stroke-linecap="round" stroke-linejoin="round"/>
</svg>
