<svg width="19" height="19" viewBox="0 0 19 19" fill="none" xmlns="http://www.w3.org/2000/svg">
<path d="M9.50521 11.0846V12.668C8.24543 12.668 7.03725 13.1684 6.14645 14.0592C5.25565 14.95 4.75521 16.1582 4.75521 17.418H3.17188C3.17188 15.7383 3.83913 14.1274 5.02687 12.9396C6.2146 11.7519 7.8255 11.0846 9.50521 11.0846ZM9.50521 10.293C6.88083 10.293 4.75521 8.16734 4.75521 5.54297C4.75521 2.91859 6.88083 0.792969 9.50521 0.792969C12.1296 0.792969 14.2552 2.91859 14.2552 5.54297C14.2552 8.16734 12.1296 10.293 9.50521 10.293ZM9.50521 8.70964C11.2548 8.70964 12.6719 7.29255 12.6719 5.54297C12.6719 3.79339 11.2548 2.3763 9.50521 2.3763C7.75562 2.3763 6.33854 3.79339 6.33854 5.54297C6.33854 7.29255 7.75562 8.70964 9.50521 8.70964ZM11.5596 14.8941C11.4592 14.4717 11.4592 14.0317 11.5596 13.6093L10.7742 13.1556L11.5659 11.7845L12.3512 12.2381C12.6665 11.9395 13.0475 11.7193 13.4635 11.5953V10.6888H15.0469V11.5953C15.468 11.7203 15.848 11.9436 16.1592 12.2381L16.9445 11.7845L17.7362 13.1556L16.9508 13.6093C17.0511 14.0314 17.0511 14.4712 16.9508 14.8933L17.7362 15.347L16.9445 16.7181L16.1592 16.2645C15.844 16.5631 15.4629 16.7833 15.0469 16.9073V17.8138H13.4635V16.9073C13.0475 16.7833 12.6665 16.5631 12.3512 16.2645L11.5659 16.7181L10.7742 15.347L11.5596 14.8941ZM14.2552 15.4388C14.5702 15.4388 14.8722 15.3137 15.0949 15.091C15.3176 14.8683 15.4427 14.5662 15.4427 14.2513C15.4427 13.9364 15.3176 13.6343 15.0949 13.4116C14.8722 13.1889 14.5702 13.0638 14.2552 13.0638C13.9403 13.0638 13.6382 13.1889 13.4155 13.4116C13.1928 13.6343 13.0677 13.9364 13.0677 14.2513C13.0677 14.5662 13.1928 14.8683 13.4155 15.091C13.6382 15.3137 13.9403 15.4388 14.2552 15.4388Z" fill="#1B193F"/>
</svg>
