<svg width="34" height="34" viewBox="0 0 34 34" fill="none" xmlns="http://www.w3.org/2000/svg">
<path d="M17 22.8438C18.5493 22.842 20.0347 22.2257 21.1302 21.1302C22.2257 20.0347 22.842 18.5493 22.8438 17V8.5C22.8438 6.95014 22.2281 5.46376 21.1322 4.36784C20.0362 3.27193 18.5499 2.65625 17 2.65625C15.4501 2.65625 13.9638 3.27193 12.8678 4.36784C11.7719 5.46376 11.1562 6.95014 11.1562 8.5V17C11.158 18.5493 11.7743 20.0347 12.8698 21.1302C13.9653 22.2257 15.4507 22.842 17 22.8438ZM12.2188 8.5C12.2188 7.23193 12.7225 6.0158 13.6191 5.11915C14.5158 4.22249 15.7319 3.71875 17 3.71875C18.2681 3.71875 19.4842 4.22249 20.3809 5.11915C21.2775 6.0158 21.7812 7.23193 21.7812 8.5V17C21.7812 18.2681 21.2775 19.4842 20.3809 20.3809C19.4842 21.2775 18.2681 21.7812 17 21.7812C15.7319 21.7812 14.5158 21.2775 13.6191 20.3809C12.7225 19.4842 12.2188 18.2681 12.2188 17V8.5ZM17.5312 27.0791V30.8125C17.5312 30.9534 17.4753 31.0885 17.3757 31.1882C17.276 31.2878 17.1409 31.3438 17 31.3438C16.8591 31.3438 16.724 31.2878 16.6243 31.1882C16.5247 31.0885 16.4688 30.9534 16.4688 30.8125V27.0791C13.8884 26.9402 11.4593 25.8181 9.68071 23.9435C7.90216 22.0688 6.90931 19.5841 6.90625 17C6.90625 16.8591 6.96222 16.724 7.06185 16.6243C7.16148 16.5247 7.2966 16.4688 7.4375 16.4688C7.5784 16.4688 7.71352 16.5247 7.81315 16.6243C7.91278 16.724 7.96875 16.8591 7.96875 17C7.96875 19.3952 8.92025 21.6924 10.6139 23.3861C12.3076 25.0797 14.6048 26.0312 17 26.0312C19.3952 26.0312 21.6924 25.0797 23.3861 23.3861C25.0797 21.6924 26.0312 19.3952 26.0312 17C26.0312 16.8591 26.0872 16.724 26.1868 16.6243C26.2865 16.5247 26.4216 16.4688 26.5625 16.4688C26.7034 16.4688 26.8385 16.5247 26.9382 16.6243C27.0378 16.724 27.0938 16.8591 27.0938 17C27.0907 19.5841 26.0978 22.0688 24.3193 23.9435C22.5407 25.8181 20.1116 26.9402 17.5312 27.0791Z" fill="black"/>
</svg>
