<svg width="17" height="18" viewBox="0 0 17 18" fill="none" xmlns="http://www.w3.org/2000/svg">
<path d="M7.47482 10.8632L5.80665 9.19323C5.76303 9.14902 5.71108 9.11393 5.65381 9.08998C5.59653 9.06603 5.53508 9.05369 5.47302 9.05369C5.41095 9.05369 5.3495 9.06603 5.29223 9.08998C5.23496 9.11393 5.183 9.14902 5.13938 9.19323C5.09523 9.2369 5.06017 9.2889 5.03625 9.34624C5.01232 9.40357 5 9.46509 5 9.52722C5 9.58936 5.01232 9.65088 5.03625 9.70821C5.06017 9.76554 5.09523 9.81755 5.13938 9.86122L7.13642 11.8604C7.3223 12.0465 7.62257 12.0465 7.80845 11.8604L12.8606 6.80753C12.9048 6.76386 12.9398 6.71185 12.9638 6.65452C12.9877 6.59718 13 6.53567 13 6.47353C13 6.4114 12.9877 6.34988 12.9638 6.29255C12.9398 6.23521 12.9048 6.1832 12.8606 6.13953C12.817 6.09533 12.765 6.06024 12.7078 6.03629C12.6505 6.01233 12.5891 6 12.527 6C12.4649 6 12.4035 6.01233 12.3462 6.03629C12.2889 6.06024 12.237 6.09533 12.1934 6.13953L7.47482 10.8632Z" fill="#1AE116"/>
<rect x="0.5" y="1" width="16" height="16" rx="8" stroke="#39FF65"/>
</svg>
