<svg width="23" height="24" viewBox="0 0 23 24" fill="none" xmlns="http://www.w3.org/2000/svg">
<path d="M21.0426 7.60872C20.353 6.88906 19.2308 6.88911 18.5409 7.60889C18.3287 7.8305 16.974 9.24525 16.7671 9.4614V4.58583C16.7671 4.09282 16.5831 3.62935 16.249 3.28076L14.5814 1.54059C14.2473 1.19195 13.8031 1 13.3307 1H3.2063C2.23098 1 1.4375 1.82798 1.4375 2.8457V20.1543C1.4375 21.172 2.23098 22 3.2063 22H14.9983C15.9736 22 16.7671 21.172 16.7671 20.1543V14.6841L21.0426 10.219C21.7338 9.49766 21.734 8.33011 21.0426 7.60872ZM13.2295 2.23047C13.3409 2.23047 13.5556 2.21033 13.7476 2.41065L15.4152 4.15082C15.6023 4.3461 15.5879 4.56007 15.5879 4.69141H13.2295V2.23047ZM15.5879 20.1543C15.5879 20.4935 15.3234 20.7695 14.9983 20.7695H3.2063C2.88119 20.7695 2.6167 20.4935 2.6167 20.1543V2.8457C2.6167 2.50646 2.88119 2.23047 3.2063 2.23047H12.0503V5.30664C12.0503 5.64641 12.3143 5.92188 12.6399 5.92188H15.5879V10.6929L13.8483 12.5096L13.0149 13.3793C12.9502 13.4468 12.9014 13.5292 12.8725 13.6198L12.0386 16.23C11.968 16.4511 12.0231 16.6949 12.1811 16.8596C12.3392 17.0246 12.5729 17.0819 12.7844 17.0083L15.2859 16.1382C15.3727 16.108 15.4517 16.0571 15.5164 15.9896L15.5879 15.9149V20.1543ZM14.2656 13.8144L15.0994 14.6845L14.7809 15.0168L13.5302 15.4518L13.9471 14.1467L14.2656 13.8144ZM15.9331 13.8142L15.0993 12.9441C15.5433 12.4804 17.5153 10.421 17.9335 9.98419L18.7673 10.8542L15.9331 13.8142ZM20.2086 9.34906L21 8.5L20 8L19.375 8.47879C19.605 8.23889 19.979 8.23893 20.2088 8.47879C20.4386 8.71873 20.4399 9.10768 20.2086 9.34906Z" fill="#686F7B"/>
<path d="M12.6409 7.15234H4.38647C4.06086 7.15234 3.79688 7.4278 3.79688 7.76758C3.79688 8.10735 4.06086 8.38281 4.38647 8.38281H12.6409C12.9665 8.38281 13.2305 8.10735 13.2305 7.76758C13.2305 7.4278 12.9665 7.15234 12.6409 7.15234Z" fill="#686F7B"/>
<path d="M10.2825 9.61328H4.38647C4.06086 9.61328 3.79688 9.88874 3.79688 10.2285C3.79688 10.5683 4.06086 10.8438 4.38647 10.8438H10.2825C10.6081 10.8438 10.8721 10.5683 10.8721 10.2285C10.8721 9.88874 10.6081 9.61328 10.2825 9.61328Z" fill="#686F7B"/>
<path d="M10.2825 12.0742H4.38647C4.06086 12.0742 3.79688 12.3497 3.79688 12.6895C3.79688 13.0292 4.06086 13.3047 4.38647 13.3047H10.2825C10.6081 13.3047 10.8721 13.0292 10.8721 12.6895C10.8721 12.3497 10.6081 12.0742 10.2825 12.0742Z" fill="#686F7B"/>
<path d="M10.2825 14.5352H4.38647C4.06086 14.5352 3.79688 14.8106 3.79688 15.1504C3.79688 15.4902 4.06086 15.7656 4.38647 15.7656H10.2825C10.6081 15.7656 10.8721 15.4902 10.8721 15.1504C10.8721 14.8106 10.6081 14.5352 10.2825 14.5352Z" fill="#686F7B"/>
<path d="M12.635 18.3086H9.09741C8.7718 18.3086 8.50781 18.5841 8.50781 18.9238C8.50781 19.2636 8.7718 19.5391 9.09741 19.5391H12.635C12.9606 19.5391 13.2246 19.2636 13.2246 18.9238C13.2246 18.5841 12.9606 18.3086 12.635 18.3086Z" fill="#686F7B"/>
</svg>
