<svg width="31" height="25" viewBox="0 0 31 25" fill="none" xmlns="http://www.w3.org/2000/svg">
<path d="M8.01123 14.7581L11.3374 23.6274L26.1122 3.46875L8.01123 14.7581Z" fill="#C2DAEC"/>
<path d="M11.7041 16.728L11.3833 23.714L19.1812 17.2195L11.7041 16.728Z" fill="#9FCDE2"/>
<path d="M29.721 0.0623991L0.606797 10.9428C0.425836 11.0101 0.270447 11.1306 0.161862 11.288C0.0532773 11.4453 -0.00320258 11.6318 0.000140265 11.8219C0.00348311 12.0119 0.0664846 12.1964 0.180537 12.3499C0.29459 12.5035 0.454128 12.6187 0.637348 12.6799L8.14885 15.1636L25.2454 4.3245L11.7041 16.7319L22.2439 24.6107C22.4961 24.8014 22.7929 24.9272 23.1072 24.9765C23.4215 25.0258 23.7434 24.9972 24.0435 24.8932C24.3437 24.7892 24.6126 24.6131 24.8259 24.3809C25.0391 24.1488 25.1899 23.868 25.2645 23.564L30.966 1.16919C31.0124 1.00427 31.0113 0.829912 30.9627 0.665579C30.9142 0.501247 30.8201 0.353416 30.6909 0.238599C30.5618 0.123782 30.4027 0.0465016 30.2314 0.0153865C30.0601 -0.0157286 29.8834 0.000547574 29.721 0.0623991Z" fill="#ECF8FD"/>
</svg>
