<svg width="24" height="24" viewBox="0 0 24 24" fill="none" xmlns="http://www.w3.org/2000/svg">
<g clip-path="url(#clip0_920_17544)">
<path d="M12 0C8.81812 0 5.76375 1.26506 3.51562 3.51469C1.26518 5.76521 0.000623381 8.81734 0 12C0 15.1813 1.26562 18.2357 3.51562 20.4853C5.76375 22.7349 8.81812 24 12 24C15.1819 24 18.2362 22.7349 20.4844 20.4853C22.7344 18.2357 24 15.1813 24 12C24 8.81869 22.7344 5.76431 20.4844 3.51469C18.2362 1.26506 15.1819 0 12 0Z" fill="url(#paint0_linear_920_17544)"/>
<path d="M5.43087 11.873C8.92962 10.349 11.2621 9.34424 12.4284 8.8588C15.7621 7.47261 16.454 7.23186 16.9059 7.2237C17.0052 7.22211 17.2265 7.24667 17.3709 7.36339C17.4909 7.46183 17.5246 7.59495 17.5415 7.68842C17.5565 7.7818 17.5771 7.99461 17.5602 8.16074C17.3802 10.0582 16.5984 14.6629 16.2009 16.7882C16.034 17.6874 15.7021 17.9889 15.3815 18.0184C14.684 18.0825 14.1552 17.5579 13.4802 17.1155C12.4246 16.4231 11.8284 15.9922 10.8027 15.3167C9.61774 14.5359 10.3865 14.1067 11.0615 13.4055C11.2377 13.2219 14.309 10.4291 14.3671 10.1758C14.3746 10.1441 14.3821 10.026 14.3109 9.96373C14.2415 9.9013 14.1384 9.92267 14.0634 9.93955C13.9565 9.96355 12.2709 11.0788 9.00087 13.2851C8.52274 13.614 8.08962 13.7743 7.69962 13.7659C7.27212 13.7567 6.44712 13.5236 5.83399 13.3245C5.08399 13.0802 4.48587 12.951 4.53837 12.536C4.56462 12.32 4.86274 12.099 5.43087 11.873Z" fill="white"/>
</g>
<defs>
<linearGradient id="paint0_linear_920_17544" x1="1200" y1="0" x2="1200" y2="2400" gradientUnits="userSpaceOnUse">
<stop stop-color="#2AABEE"/>
<stop offset="1" stop-color="#229ED9"/>
</linearGradient>
<clipPath id="clip0_920_17544">
<rect width="24" height="24" fill="white"/>
</clipPath>
</defs>
</svg>
