<svg width="24" height="21" viewBox="0 0 24 21" fill="none" xmlns="http://www.w3.org/2000/svg">
<g id="ph:telegram-logo-light">
<path id="Vector" d="M21.7682 1.16503C21.6761 1.08426 21.5641 1.03056 21.4441 1.00972C21.3242 0.98888 21.2009 1.00169 21.0876 1.04678L1.74205 8.73411C1.50675 8.8276 1.30767 8.99608 1.17471 9.21425C1.04175 9.43242 0.982084 9.6885 1.00468 9.94403C1.02727 10.1996 1.13091 10.4408 1.30001 10.6314C1.46912 10.822 1.69457 10.9518 1.94251 11.0012L7.10871 12.0316V17.8657C7.10881 18.1361 7.18852 18.4004 7.33759 18.6245C7.48666 18.8487 7.69829 19.0225 7.94533 19.1236C8.19237 19.2248 8.46354 19.2487 8.72404 19.1922C8.98454 19.1358 9.22249 19.0016 9.40734 18.8068L11.9503 16.1287L15.9195 19.6617C16.1618 19.8794 16.4741 19.9997 16.7977 20C16.939 19.9997 17.0794 19.9771 17.2139 19.9331C17.4344 19.8623 17.6328 19.734 17.7892 19.561C17.9456 19.388 18.0547 19.1765 18.1055 18.9474L21.983 1.83092C22.0103 1.71059 22.0047 1.58499 21.9668 1.46765C21.929 1.35031 21.8603 1.24568 21.7682 1.16503ZM2.14966 9.85653C2.146 9.84652 2.146 9.83552 2.14966 9.82551C2.15397 9.82213 2.15881 9.81951 2.16398 9.81776L17.4096 3.75785L7.54877 10.9305L2.16398 9.86041L2.14966 9.85653ZM8.58258 17.9984C8.55627 18.0262 8.52243 18.0453 8.48536 18.0534C8.4483 18.0615 8.4097 18.0583 8.37448 18.044C8.33925 18.0298 8.309 18.0052 8.28758 17.9734C8.26616 17.9417 8.25454 17.9042 8.2542 17.8657V12.8361L11.0884 15.3562L8.58258 17.9984ZM16.9896 18.6847C16.9825 18.7175 16.967 18.7477 16.9444 18.7723C16.9219 18.7968 16.8934 18.8148 16.8617 18.8243C16.8293 18.8358 16.7946 18.8383 16.761 18.8315C16.7274 18.8246 16.6962 18.8088 16.6707 18.7855L8.60167 11.5983L20.5683 2.89034L16.9896 18.6847Z" fill="#686F7B" stroke="#686F7B" stroke-width="0.5"/>
</g>
</svg>
