<svg width="25" height="24" viewBox="0 0 25 24" fill="none" xmlns="http://www.w3.org/2000/svg">
<path d="M21.0166 6H4.0166M19.3496 8.5L18.8896 15.4C18.7126 18.054 18.6246 19.381 17.7596 20.19C16.8946 21 15.5636 21 12.9036 21H12.1296C9.4696 21 8.1386 21 7.2736 20.19C6.4086 19.381 6.3196 18.054 6.1436 15.4L5.6836 8.5M10.0166 11L10.5166 16M15.0166 11L14.5166 16" stroke="#F91C1C" stroke-width="1.5" stroke-linecap="round"/>
<path d="M7.0166 6H7.1266C7.52905 5.98972 7.91902 5.85822 8.24552 5.62271C8.57203 5.3872 8.81986 5.05864 8.9566 4.68L8.9906 4.577L9.0876 4.286C9.1706 4.037 9.2126 3.913 9.2676 3.807C9.37581 3.59939 9.53111 3.41999 9.72108 3.28316C9.91105 3.14633 10.1304 3.05586 10.3616 3.019C10.4786 3 10.6096 3 10.8716 3H14.1616C14.4236 3 14.5546 3 14.6716 3.019C14.9028 3.05586 15.1222 3.14633 15.3121 3.28316C15.5021 3.41999 15.6574 3.59939 15.7656 3.807C15.8206 3.913 15.8626 4.037 15.9456 4.286L16.0426 4.577C16.1693 4.99827 16.4314 5.36601 16.7883 5.62326C17.1451 5.88051 17.5769 6.01293 18.0166 6" stroke="#F91C1C" stroke-width="1.5"/>
</svg>
