<svg width="20" height="20" viewBox="0 0 20 20" fill="none" xmlns="http://www.w3.org/2000/svg">
<path d="M18.026 3.35854C17.3468 3.67938 16.191 4.28104 15.6102 4.39604C15.5877 4.40188 15.5693 4.40938 15.5477 4.41521C14.8702 3.74688 13.9418 3.33271 12.9143 3.33271C10.8435 3.33271 9.16433 5.01188 9.16433 7.08271C9.16433 7.19188 9.15517 7.39271 9.16433 7.49938C6.48267 7.49938 4.52433 6.10021 3.0585 4.30188C2.86267 4.06021 2.65433 4.18604 2.611 4.35771C2.5135 4.74604 2.48017 5.39521 2.48017 5.85854C2.48017 7.02604 3.39267 8.17271 4.8135 8.88354C4.55183 8.95104 4.2635 8.99938 3.9635 8.99938C3.61017 8.99938 3.2035 8.90688 2.84767 8.72021C2.716 8.65104 2.43183 8.67021 2.516 9.00688C2.8535 10.356 4.3935 11.3035 5.76933 11.5794C5.45683 11.7635 4.79017 11.726 4.4835 11.726C4.37017 11.726 3.976 11.6994 3.721 11.6677C3.4885 11.6394 3.131 11.6994 3.43017 12.1527C4.07267 13.1252 5.526 13.736 6.77683 13.7594C5.62517 14.6627 3.74183 14.9927 1.93767 14.9927C1.57267 14.9844 1.591 15.4002 1.88517 15.5544C3.216 16.2527 5.396 16.666 6.9535 16.666C13.1452 16.666 16.6643 11.9469 16.6643 7.49854C16.6643 7.42688 16.6627 7.27688 16.6602 7.12604C16.6602 7.11104 16.6643 7.09688 16.6643 7.08188C16.6643 7.05938 16.6577 7.03771 16.6577 7.01521C16.6552 6.90188 16.6527 6.79604 16.6502 6.74104C17.141 6.38688 17.8927 5.77188 18.2727 5.30104C18.4018 5.14104 18.2977 4.94688 18.1218 5.00771C17.6693 5.16521 16.8868 5.47021 16.3968 5.52854C17.3777 4.87938 17.8627 4.31438 18.2793 3.68688C18.4218 3.47271 18.2435 3.25521 18.026 3.35854Z" fill="white"/>
</svg>
