<svg width="48" height="43" viewBox="0 0 48 43" fill="none" xmlns="http://www.w3.org/2000/svg">
<path d="M31.8002 28.1923L24.0202 21.0898L16.2402 28.1923" stroke="#1B193F" stroke-width="2.5082" stroke-linecap="round" stroke-linejoin="round"/>
<path d="M24.0137 21.0898V37.0704" stroke="#1B193F" stroke-width="2.5082" stroke-linecap="round" stroke-linejoin="round"/>
<path d="M40.3312 32.4362C42.2283 31.4921 43.7269 29.9981 44.5905 28.19C45.4542 26.382 45.6337 24.3629 45.1008 22.4514C44.5678 20.5398 43.3528 18.8447 41.6474 17.6337C39.942 16.4226 37.8433 15.7644 35.6827 15.7631H33.232C32.6433 13.6843 31.546 11.7544 30.0227 10.1184C28.4993 8.48247 26.5896 7.18307 24.4369 6.31791C22.2843 5.45275 19.9449 5.04435 17.5945 5.1234C15.2441 5.20246 12.9439 5.76692 10.8669 6.77435C8.78982 7.78177 6.98997 9.20595 5.60262 10.9398C4.21528 12.6737 3.27654 14.6721 2.85699 16.7848C2.43743 18.8976 2.54798 21.0696 3.18031 23.1378C3.81264 25.2059 4.95031 27.1162 6.50778 28.7252" stroke="#1B193F" stroke-width="2.5082" stroke-linecap="round" stroke-linejoin="round"/>
<path d="M31.8002 28.1923L24.0202 21.0898L16.2402 28.1923" stroke="#1B193F" stroke-width="2.5082" stroke-linecap="round" stroke-linejoin="round"/>
</svg>
