<svg width="29" height="20" viewBox="0 0 29 20" fill="none" xmlns="http://www.w3.org/2000/svg">
<rect x="0.898438" width="27.8564" height="20" rx="2" fill="white"/>
<mask id="mask0_1163_39207" style="mask-type:luminance" maskUnits="userSpaceOnUse" x="0" y="0" width="29" height="20">
<rect x="0.898438" width="27.8564" height="20" rx="2" fill="white"/>
</mask>
<g mask="url(#mask0_1163_39207)">
<path fill-rule="evenodd" clip-rule="evenodd" d="M28.7548 0H0.898438V1.33333H28.7548V0ZM28.7548 2.66797H0.898438V4.0013H28.7548V2.66797ZM0.898438 5.33203H28.7548V6.66536H0.898438V5.33203ZM28.7548 8H0.898438V9.33333H28.7548V8ZM0.898438 10.668H28.7548V12.0013H0.898438V10.668ZM28.7548 13.332H0.898438V14.6654H28.7548V13.332ZM0.898438 16H28.7548V17.3333H0.898438V16ZM28.7548 18.668H0.898438V20.0013H28.7548V18.668Z" fill="#D02F44"/>
<rect x="0.898438" width="11.9385" height="9.33333" fill="#46467F"/>
<g filter="url(#filter0_d_1163_39207)">
<path fill-rule="evenodd" clip-rule="evenodd" d="M3.55306 1.9987C3.55306 2.36689 3.25611 2.66536 2.88981 2.66536C2.52351 2.66536 2.22656 2.36689 2.22656 1.9987C2.22656 1.63051 2.52351 1.33203 2.88981 1.33203C3.25611 1.33203 3.55306 1.63051 3.55306 1.9987ZM6.20931 1.9987C6.20931 2.36689 5.91236 2.66536 5.54606 2.66536C5.17976 2.66536 4.88281 2.36689 4.88281 1.9987C4.88281 1.63051 5.17976 1.33203 5.54606 1.33203C5.91236 1.33203 6.20931 1.63051 6.20931 1.9987ZM8.1945 2.66536C8.5608 2.66536 8.85775 2.36689 8.85775 1.9987C8.85775 1.63051 8.5608 1.33203 8.1945 1.33203C7.8282 1.33203 7.53125 1.63051 7.53125 1.9987C7.53125 2.36689 7.8282 2.66536 8.1945 2.66536ZM11.514 1.9987C11.514 2.36689 11.217 2.66536 10.8507 2.66536C10.4844 2.66536 10.1875 2.36689 10.1875 1.9987C10.1875 1.63051 10.4844 1.33203 10.8507 1.33203C11.217 1.33203 11.514 1.63051 11.514 1.9987ZM4.21794 3.9974C4.58424 3.9974 4.88118 3.69892 4.88118 3.33073C4.88118 2.96254 4.58424 2.66406 4.21794 2.66406C3.85163 2.66406 3.55469 2.96254 3.55469 3.33073C3.55469 3.69892 3.85163 3.9974 4.21794 3.9974ZM7.52962 3.33073C7.52962 3.69892 7.23267 3.9974 6.86637 3.9974C6.50007 3.9974 6.20312 3.69892 6.20312 3.33073C6.20312 2.96254 6.50007 2.66406 6.86637 2.66406C7.23267 2.66406 7.52962 2.96254 7.52962 3.33073ZM9.52262 3.9974C9.88892 3.9974 10.1859 3.69892 10.1859 3.33073C10.1859 2.96254 9.88892 2.66406 9.52262 2.66406C9.15632 2.66406 8.85938 2.96254 8.85938 3.33073C8.85938 3.69892 9.15632 3.9974 9.52262 3.9974ZM11.514 4.66667C11.514 5.03486 11.217 5.33333 10.8507 5.33333C10.4844 5.33333 10.1875 5.03486 10.1875 4.66667C10.1875 4.29848 10.4844 4 10.8507 4C11.217 4 11.514 4.29848 11.514 4.66667ZM8.1945 5.33333C8.5608 5.33333 8.85775 5.03486 8.85775 4.66667C8.85775 4.29848 8.5608 4 8.1945 4C7.8282 4 7.53125 4.29848 7.53125 4.66667C7.53125 5.03486 7.8282 5.33333 8.1945 5.33333ZM6.20931 4.66667C6.20931 5.03486 5.91236 5.33333 5.54606 5.33333C5.17976 5.33333 4.88281 5.03486 4.88281 4.66667C4.88281 4.29848 5.17976 4 5.54606 4C5.91236 4 6.20931 4.29848 6.20931 4.66667ZM2.88981 5.33333C3.25611 5.33333 3.55306 5.03486 3.55306 4.66667C3.55306 4.29848 3.25611 4 2.88981 4C2.52351 4 2.22656 4.29848 2.22656 4.66667C2.22656 5.03486 2.52351 5.33333 2.88981 5.33333ZM4.88118 5.9987C4.88118 6.36689 4.58424 6.66536 4.21794 6.66536C3.85163 6.66536 3.55469 6.36689 3.55469 5.9987C3.55469 5.63051 3.85163 5.33203 4.21794 5.33203C4.58424 5.33203 4.88118 5.63051 4.88118 5.9987ZM6.86637 6.66536C7.23267 6.66536 7.52962 6.36689 7.52962 5.9987C7.52962 5.63051 7.23267 5.33203 6.86637 5.33203C6.50007 5.33203 6.20312 5.63051 6.20312 5.9987C6.20312 6.36689 6.50007 6.66536 6.86637 6.66536ZM10.1859 5.9987C10.1859 6.36689 9.88892 6.66536 9.52262 6.66536C9.15632 6.66536 8.85938 6.36689 8.85938 5.9987C8.85938 5.63051 9.15632 5.33203 9.52262 5.33203C9.88892 5.33203 10.1859 5.63051 10.1859 5.9987ZM10.8507 7.9974C11.217 7.9974 11.514 7.69892 11.514 7.33073C11.514 6.96254 11.217 6.66406 10.8507 6.66406C10.4844 6.66406 10.1875 6.96254 10.1875 7.33073C10.1875 7.69892 10.4844 7.9974 10.8507 7.9974ZM8.85775 7.33073C8.85775 7.69892 8.5608 7.9974 8.1945 7.9974C7.8282 7.9974 7.53125 7.69892 7.53125 7.33073C7.53125 6.96254 7.8282 6.66406 8.1945 6.66406C8.5608 6.66406 8.85775 6.96254 8.85775 7.33073ZM5.54606 7.9974C5.91236 7.9974 6.20931 7.69892 6.20931 7.33073C6.20931 6.96254 5.91236 6.66406 5.54606 6.66406C5.17976 6.66406 4.88281 6.96254 4.88281 7.33073C4.88281 7.69892 5.17976 7.9974 5.54606 7.9974ZM3.55306 7.33073C3.55306 7.69892 3.25611 7.9974 2.88981 7.9974C2.52351 7.9974 2.22656 7.69892 2.22656 7.33073C2.22656 6.96254 2.52351 6.66406 2.88981 6.66406C3.25611 6.66406 3.55306 6.96254 3.55306 7.33073Z" fill="url(#paint0_linear_1163_39207)"/>
</g>
</g>
<defs>
<filter id="filter0_d_1163_39207" x="2.22656" y="1.33203" width="9.28711" height="7.66541" filterUnits="userSpaceOnUse" color-interpolation-filters="sRGB">
<feFlood flood-opacity="0" result="BackgroundImageFix"/>
<feColorMatrix in="SourceAlpha" type="matrix" values="0 0 0 0 0 0 0 0 0 0 0 0 0 0 0 0 0 0 127 0" result="hardAlpha"/>
<feOffset dy="1"/>
<feColorMatrix type="matrix" values="0 0 0 0 0 0 0 0 0 0 0 0 0 0 0 0 0 0 0.06 0"/>
<feBlend mode="normal" in2="BackgroundImageFix" result="effect1_dropShadow_1163_39207"/>
<feBlend mode="normal" in="SourceGraphic" in2="effect1_dropShadow_1163_39207" result="shape"/>
</filter>
<linearGradient id="paint0_linear_1163_39207" x1="2.22656" y1="1.33203" x2="2.22656" y2="7.9974" gradientUnits="userSpaceOnUse">
<stop stop-color="white"/>
<stop offset="1" stop-color="#F0F0F0"/>
</linearGradient>
</defs>
</svg>
