<svg width="20" height="20" viewBox="0 0 20 20" fill="none" xmlns="http://www.w3.org/2000/svg">
<path d="M15.8281 6.66797V5.0013H14.1615V3.33464H15.8281V1.66797H17.4948V3.33464H19.1615V5.0013H17.4948V6.66797H15.8281ZM2.49479 18.3346C2.03646 18.3346 1.64396 18.1713 1.31729 17.8446C0.990626 17.518 0.827571 17.1257 0.828126 16.668V6.66797C0.828126 6.20964 0.99146 5.81714 1.31813 5.49047C1.64479 5.1638 2.03702 5.00075 2.49479 5.0013H5.11979L6.66146 3.33464H11.6615V5.0013H7.39063L5.86979 6.66797H2.49479V16.668H15.8281V9.16797H17.4948V16.668C17.4948 17.1263 17.3315 17.5188 17.0048 17.8455C16.6781 18.1721 16.2859 18.3352 15.8281 18.3346H2.49479ZM9.16146 15.418C10.2031 15.418 11.0887 15.0532 11.8181 14.3238C12.5476 13.5944 12.912 12.7091 12.9115 11.668C12.9115 10.6263 12.5467 9.74075 11.8173 9.0113C11.0878 8.28186 10.2026 7.91741 9.16146 7.91797C8.11979 7.91797 7.23424 8.28269 6.50479 9.01214C5.77535 9.74158 5.4109 10.6269 5.41146 11.668C5.41146 12.7096 5.77618 13.5952 6.50563 14.3246C7.23507 15.0541 8.12035 15.4185 9.16146 15.418ZM9.16146 13.7513C8.57813 13.7513 8.08507 13.5499 7.68229 13.1471C7.27952 12.7444 7.07813 12.2513 7.07813 11.668C7.07813 11.0846 7.27952 10.5916 7.68229 10.1888C8.08507 9.78602 8.57813 9.58464 9.16146 9.58464C9.74479 9.58464 10.2378 9.78602 10.6406 10.1888C11.0434 10.5916 11.2448 11.0846 11.2448 11.668C11.2448 12.2513 11.0434 12.7444 10.6406 13.1471C10.2378 13.5499 9.74479 13.7513 9.16146 13.7513Z" fill="black"/>
</svg>
