<svg width="34" height="34" viewBox="0 0 34 34" fill="none" xmlns="http://www.w3.org/2000/svg">
<g clip-path="url(#clip0_868_14615)">
<circle cx="16.9766" cy="17.4336" r="16.5" fill="#EEF6FC"/>
<path d="M16.9714 20.9336C19.8248 20.9336 22.138 18.4712 22.138 15.4336C22.138 12.396 19.8248 9.93359 16.9714 9.93359C14.1179 9.93359 11.8047 12.396 11.8047 15.4336C11.8047 18.4712 14.1179 20.9336 16.9714 20.9336Z" fill="#1B193F"/>
<path d="M29.4766 28.9336C29.4766 32.2469 29.4766 34.9336 16.9766 34.9336C4.47656 34.9336 4.47656 32.2469 4.47656 28.9336C4.47656 25.6203 10.0734 22.9336 16.9766 22.9336C23.8797 22.9336 29.4766 25.6203 29.4766 28.9336Z" fill="#1B193F"/>
</g>
<defs>
<clipPath id="clip0_868_14615">
<rect x="0.476562" y="0.933594" width="33" height="33" rx="16.5" fill="white"/>
</clipPath>
</defs>
</svg>
