<svg width="11" height="7" viewBox="0 0 11 7" fill="none" xmlns="http://www.w3.org/2000/svg">
<path d="M10.3022 1.30923L5.75218 5.87277C5.69801 5.92694 5.63933 5.96521 5.57614 5.9876C5.51295 6.01035 5.44524 6.02173 5.37301 6.02173C5.30079 6.02173 5.23308 6.01035 5.16989 5.9876C5.1067 5.96521 5.04801 5.92694 4.99385 5.87277L0.430306 1.30923C0.303917 1.18284 0.240722 1.02485 0.240722 0.835271C0.240722 0.645688 0.308431 0.483188 0.443847 0.347771C0.579264 0.212354 0.73725 0.144646 0.917806 0.144646C1.09836 0.144646 1.25635 0.212354 1.39176 0.347771L5.37301 4.32902L9.35426 0.34777C9.48065 0.221382 9.63629 0.158187 9.82118 0.158187C10.0064 0.158187 10.1668 0.225895 10.3022 0.361312C10.4376 0.496728 10.5053 0.654715 10.5053 0.83527C10.5053 1.01583 10.4376 1.17381 10.3022 1.30923Z" fill="#1B193F"/>
</svg>
