<svg width="25" height="25" viewBox="0 0 25 25" fill="none" xmlns="http://www.w3.org/2000/svg">
<path d="M15 2.50001C15 2.35257 14.9609 2.20776 14.8867 2.08036C14.8125 1.95296 14.7058 1.84753 14.5775 1.77483C14.4493 1.70214 14.304 1.66478 14.1566 1.66657C14.0091 1.66835 13.8648 1.70923 13.7383 1.78501L5.60333 6.66334H2.5C1.11833 6.66334 0 7.78001 0 9.16335V15.8333C0 17.215 1.11667 18.3333 2.5 18.3333H5.60333L13.7367 23.215C13.8632 23.2912 14.0077 23.3324 14.1554 23.3344C14.303 23.3364 14.4486 23.2992 14.5771 23.2264C14.7057 23.1537 14.8126 23.0481 14.8869 22.9204C14.9612 22.7928 15.0002 22.6477 15 22.5V2.50001Z" fill="#4B4B4B"/>
<path d="M20.6914 13.1523C20.6914 11.7656 19.8437 10.5781 18.6406 10.0781L18 11.6172C18.6016 11.8672 19.0234 12.4609 19.0234 13.1562C19.0234 13.8477 18.6016 14.4414 18 14.6953L18.6406 16.2344C19.8437 15.7266 20.6914 14.5391 20.6914 13.1523ZM19.9219 7L19.2812 8.53906C21.0898 9.29297 22.3594 11.0742 22.3594 13.1523C22.3594 15.2344 21.0898 17.0117 19.2812 17.7656L19.9219 19.3047C22.332 18.3008 24.0234 15.9258 24.0234 13.1523C24.0234 10.3789 22.332 8.00391 19.9219 7Z" fill="#4B4B4B"/>
</svg>
