<svg width="25" height="25" viewBox="0 0 25 25" fill="none" xmlns="http://www.w3.org/2000/svg">
<path d="M15 2.50001C15 2.35257 14.9609 2.20776 14.8867 2.08036C14.8125 1.95296 14.7058 1.84753 14.5775 1.77483C14.4493 1.70214 14.304 1.66478 14.1566 1.66657C14.0091 1.66835 13.8648 1.70923 13.7383 1.78501L5.60333 6.66335H2.5C1.11833 6.66335 0 7.78001 0 9.16335V15.8333C0 17.215 1.11667 18.3333 2.5 18.3333H5.60333L13.7367 23.215C13.8632 23.2912 14.0077 23.3324 14.1554 23.3344C14.303 23.3365 14.4486 23.2992 14.5771 23.2264C14.7057 23.1537 14.8126 23.0481 14.8869 22.9204C14.9612 22.7928 15.0002 22.6477 15 22.5V2.50001ZM22.0117 12.4933L24.3683 14.8483L23.19 16.0267L20.8333 13.6717L18.4767 16.0267L17.2983 14.8483L19.655 12.4933L17.2983 10.1383L18.4767 8.96001L20.8333 11.315L23.1917 8.96001L24.3683 10.1383L22.0117 12.4933Z" fill="#4B4B4B"/>
</svg>
