<?xml version="1.0" ?><!DOCTYPE svg  PUBLIC '-//W3C//DTD SVG 1.1//EN'  'http://www.w3.org/Graphics/SVG/1.1/DTD/svg11.dtd'><svg enable-background="new 0 0 1024 1024" height="1024px" id="Website_2_" version="1.1" viewBox="0 0 1024 1024" width="1024px" xml:space="preserve" xmlns="http://www.w3.org/2000/svg" xmlns:xlink="http://www.w3.org/1999/xlink"><g id="Background"><g id="bg"><path d="M64.014,293.264c0-24.062,16.985-53.702,37.746-65.866L474.255,9.139c20.76-12.164,54.731-12.164,75.493,0    l372.496,218.259c20.76,12.164,37.744,41.804,37.744,65.866v437.488c0,24.062-16.984,53.702-37.744,65.866l-372.496,218.259    c-20.762,12.164-54.733,12.164-75.493,0L101.759,796.618c-20.761-12.164-37.746-41.806-37.746-65.866V293.264z" fill="#2A8BDB"/><path d="M64.014,293.264c0-24.062,16.985-53.702,37.746-65.866    L474.255,9.139c20.76-12.164,54.731-12.164,75.493,0l372.496,218.259c20.76,12.164,37.744,41.804,37.744,65.866v437.488    c0,24.062-16.984,53.702-37.744,65.866l-372.496,218.259c-20.762,12.164-54.733,12.164-75.493,0L101.759,796.618    c-20.761-12.164-37.746-41.806-37.746-65.866V293.264z" fill="none" stroke="#2A8BDB" stroke-miterlimit="10"/></g><path d="M948.902,255.927c0,0-1.072-2.074-3.373-5.443   c-1.865-2.731-3.842-5.701-6.268-8.394c-5.125-5.687-6.867-7.118-7.564-7.743c-2.703-2.416-5.994-4.923-9.17-6.784   C920.209,226.204,550.434,9.539,550.434,9.539s-6.277-3.633-11.965-5.456c-5.688-1.823-9.699-2.625-13.854-3.208   C520.459,0.292,514.699,0,510.981,0c-3.72,0-12.396,0.729-16.114,1.604s-6.437,1.549-7.42,1.877   c-0.984,0.328-3.253,1.121-4.184,1.422c-0.93,0.301-5.223,2.214-5.468,2.352c-0.246,0.138-1.685,0.796-2.494,1.27   c-0.808,0.474-360.534,211.251-360.534,211.251s-15.173,8.302-21.151,13.406c-2.559,2.185-5.398,4.99-7.852,7.774   c-3.278,3.719-5.954,7.385-7.205,9.324c-0.945,1.466-2.338,3.624-3.582,5.852c-1.617,2.897-3.108,5.984-3.76,7.328   c-1.191,2.459-3.376,8.258-3.923,10.008s-1.587,5.673-1.75,6.599c-0.042,0.24-0.712,3.609-0.766,4.01   c-0.055,0.401-0.452,2.994-0.547,4.375c-0.034,0.493-0.218,2.971-0.218,3.044c-0.001,0.073-0.002,440.405-0.002,440.405   s0.357,5.206,0.438,5.778c0.029,0.207,0.465,3.52,0.802,4.959c0.219,0.933,0.656,3.063,0.948,4.083   c0.291,1.021,0.747,2.702,0.984,3.426c0.219,0.67,0.984,2.991,1.239,3.684c0.256,0.691,1.282,3.33,1.568,4.011   c0.293,0.697,1.859,4.119,1.969,4.338S948.902,255.927,948.902,255.927z" enable-background="new    " fill="#FFFFFF" id="bg-light" opacity="0.2"/></g><path d="M512,242.436c-148.877,0-269.564,120.688-269.564,269.564S363.125,781.563,512,781.563  c148.876,0,269.564-120.688,269.564-269.563C781.566,363.123,660.879,242.436,512,242.436z M715.145,398.703  c9.572,17.104,16.904,35.334,21.852,54.32h-90.627c-3.354-18.445-8.275-36.635-14.801-54.32H715.145L715.145,398.703z   M621.49,550.746l-25.387-77.381l16.197-7.161l18.057,60.253l13.982-38.475h17.824l13.984,38.475l18.055-60.253l16.197,7.161  l-25.385,77.381l-15.947,7.049l-15.816-52.792l-15.818,52.792L621.49,550.746z M623.387,570.976  c-3.613,18.416-8.926,36.537-15.965,54.076h-84.135v-54.076H623.387z M676.41,347.591c8.939,8.939,17.049,18.489,24.314,28.539  h-78.479c-15.443-33.661-36.961-64.997-64.551-92.179C602.383,292.809,643.469,314.649,676.41,347.591z M523.287,283.297  c31.76,26.41,56.371,58.153,73.834,92.834h-73.834V283.297z M523.287,398.703h84.037c7.088,17.614,12.434,35.819,16.063,54.32  h-100.1V398.703z M500.714,283.581v92.55H427.22C444.622,341.573,469.122,309.933,500.714,283.581z M400.954,453.022  c3.632-18.501,8.977-36.706,16.063-54.32h83.696v54.32H400.954z M427.897,473.365l-25.385,77.381l-15.946,7.049l-15.817-52.792  l-15.817,52.792l-15.945-7.049L313.6,473.365l16.196-7.161l18.054,60.253l13.984-38.475h17.824l13.984,38.475l18.055-60.253  L427.897,473.365z M347.591,347.591c33.045-33.043,74.283-54.912,119.134-63.718c-27.63,27.201-49.172,58.563-64.629,92.257h-78.818  C330.544,366.081,338.653,356.531,347.591,347.591z M308.858,398.703h83.917c-6.526,17.685-11.449,35.875-14.801,54.32h-90.967  C291.953,434.037,299.285,415.807,308.858,398.703z M308.72,625.052c-9.505-17.034-16.789-35.18-21.712-54.076h90.967  c3.334,18.36,8.228,36.467,14.707,54.076H308.72z M347.591,676.408c-9.014-9.014-17.181-18.646-24.493-28.784h78.887  c15.464,33.786,37.044,65.235,64.739,92.501C421.875,731.321,380.635,709.452,347.591,676.408z M500.714,740.42  c-31.669-26.416-56.21-58.145-73.619-92.797h73.619V740.42z M500.714,625.052h-83.797c-7.038-17.539-12.351-35.66-15.965-54.076  h99.762V625.052z M511.871,505.004l-15.819,52.792l-15.945-7.049l-25.383-77.381l16.197-7.161l18.054,60.253l13.983-38.475h17.826  l13.982,38.475l18.055-60.253l16.197,7.161l-25.385,77.381l-15.945,7.049L511.871,505.004z M523.287,740.704v-93.08h73.959  C579.775,682.4,555.123,714.231,523.287,740.704z M676.41,676.408c-32.939,32.941-74.025,54.781-118.715,63.64  c27.656-27.248,49.213-58.672,64.662-92.425h78.547C693.59,657.764,685.424,667.396,676.41,676.408z M715.281,625.052H631.66  c6.479-17.609,11.373-35.716,14.709-54.076h90.625C732.072,589.872,724.787,608.018,715.281,625.052z" fill="#FFFFFF" id="Website_1_"/></svg>